%TF.GenerationSoftware,KiCad,Pcbnew,(6.0.10)*%
%TF.CreationDate,2023-01-22T23:50:18+10:00*%
%TF.ProjectId,ESP32-S3-Breakout,45535033-322d-4533-932d-427265616b6f,rev?*%
%TF.SameCoordinates,Original*%
%TF.FileFunction,Other,Comment*%
%FSLAX46Y46*%
G04 Gerber Fmt 4.6, Leading zero omitted, Abs format (unit mm)*
G04 Created by KiCad (PCBNEW (6.0.10)) date 2023-01-22 23:50:18*
%MOMM*%
%LPD*%
G01*
G04 APERTURE LIST*
%ADD10C,0.150000*%
G04 APERTURE END LIST*
D10*
%TO.C,U3*%
X87281095Y-77872666D02*
X87757285Y-77872666D01*
X87185857Y-78158380D02*
X87519190Y-77158380D01*
X87852523Y-78158380D01*
X88185857Y-77491714D02*
X88185857Y-78158380D01*
X88185857Y-77586952D02*
X88233476Y-77539333D01*
X88328714Y-77491714D01*
X88471571Y-77491714D01*
X88566809Y-77539333D01*
X88614428Y-77634571D01*
X88614428Y-78158380D01*
X88947761Y-77491714D02*
X89328714Y-77491714D01*
X89090619Y-77158380D02*
X89090619Y-78015523D01*
X89138238Y-78110761D01*
X89233476Y-78158380D01*
X89328714Y-78158380D01*
X90043000Y-78110761D02*
X89947761Y-78158380D01*
X89757285Y-78158380D01*
X89662047Y-78110761D01*
X89614428Y-78015523D01*
X89614428Y-77634571D01*
X89662047Y-77539333D01*
X89757285Y-77491714D01*
X89947761Y-77491714D01*
X90043000Y-77539333D01*
X90090619Y-77634571D01*
X90090619Y-77729809D01*
X89614428Y-77825047D01*
X90519190Y-77491714D02*
X90519190Y-78158380D01*
X90519190Y-77586952D02*
X90566809Y-77539333D01*
X90662047Y-77491714D01*
X90804904Y-77491714D01*
X90900142Y-77539333D01*
X90947761Y-77634571D01*
X90947761Y-78158380D01*
X91423952Y-77491714D02*
X91423952Y-78158380D01*
X91423952Y-77586952D02*
X91471571Y-77539333D01*
X91566809Y-77491714D01*
X91709666Y-77491714D01*
X91804904Y-77539333D01*
X91852523Y-77634571D01*
X91852523Y-78158380D01*
X92757285Y-78158380D02*
X92757285Y-77634571D01*
X92709666Y-77539333D01*
X92614428Y-77491714D01*
X92423952Y-77491714D01*
X92328714Y-77539333D01*
X92757285Y-78110761D02*
X92662047Y-78158380D01*
X92423952Y-78158380D01*
X92328714Y-78110761D01*
X92281095Y-78015523D01*
X92281095Y-77920285D01*
X92328714Y-77825047D01*
X92423952Y-77777428D01*
X92662047Y-77777428D01*
X92757285Y-77729809D01*
%TD*%
M02*
