%TF.GenerationSoftware,KiCad,Pcbnew,(6.0.10)*%
%TF.CreationDate,2023-01-22T23:50:18+10:00*%
%TF.ProjectId,ESP32-S3-Breakout,45535033-322d-4533-932d-427265616b6f,rev?*%
%TF.SameCoordinates,Original*%
%TF.FileFunction,Soldermask,Bot*%
%TF.FilePolarity,Negative*%
%FSLAX46Y46*%
G04 Gerber Fmt 4.6, Leading zero omitted, Abs format (unit mm)*
G04 Created by KiCad (PCBNEW (6.0.10)) date 2023-01-22 23:50:18*
%MOMM*%
%LPD*%
G01*
G04 APERTURE LIST*
%ADD10C,0.650000*%
%ADD11O,1.000000X2.100000*%
%ADD12O,1.000000X1.600000*%
%ADD13C,0.500000*%
%ADD14R,1.700000X1.700000*%
%ADD15O,1.700000X1.700000*%
G04 APERTURE END LIST*
D10*
%TO.C,J1*%
X97378000Y-122114000D03*
X91598000Y-122114000D03*
D11*
X98808000Y-121584000D03*
D12*
X90168000Y-125764000D03*
D11*
X90168000Y-121584000D03*
D12*
X98808000Y-125764000D03*
%TD*%
D13*
%TO.C,U3*%
X87143000Y-90716000D03*
X88543000Y-89316000D03*
X89243000Y-90016000D03*
X87143000Y-89316000D03*
X88543000Y-90716000D03*
X89243000Y-88616000D03*
X89243000Y-91416000D03*
X87843000Y-91416000D03*
X89943000Y-90716000D03*
X87843000Y-88616000D03*
X87843000Y-90016000D03*
X89943000Y-89316000D03*
%TD*%
D10*
%TO.C,J2*%
X80422000Y-122114000D03*
X86202000Y-122114000D03*
D11*
X78992000Y-121584000D03*
D12*
X87632000Y-125764000D03*
X78992000Y-125764000D03*
D11*
X87632000Y-121584000D03*
%TD*%
D14*
%TO.C,J3*%
X76200000Y-76200000D03*
D15*
X76200000Y-78740000D03*
X76200000Y-81280000D03*
X76200000Y-83820000D03*
X76200000Y-86360000D03*
X76200000Y-88900000D03*
X76200000Y-91440000D03*
X76200000Y-93980000D03*
X76200000Y-96520000D03*
X76200000Y-99060000D03*
X76200000Y-101600000D03*
X76200000Y-104140000D03*
X76200000Y-106680000D03*
X76200000Y-109220000D03*
X76200000Y-111760000D03*
X76200000Y-114300000D03*
X76200000Y-116840000D03*
X76200000Y-119380000D03*
X76200000Y-121920000D03*
X76200000Y-124460000D03*
X76200000Y-127000000D03*
%TD*%
D14*
%TO.C,J4*%
X101600000Y-76200000D03*
D15*
X101600000Y-78740000D03*
X101600000Y-81280000D03*
X101600000Y-83820000D03*
X101600000Y-86360000D03*
X101600000Y-88900000D03*
X101600000Y-91440000D03*
X101600000Y-93980000D03*
X101600000Y-96520000D03*
X101600000Y-99060000D03*
X101600000Y-101600000D03*
X101600000Y-104140000D03*
X101600000Y-106680000D03*
X101600000Y-109220000D03*
X101600000Y-111760000D03*
X101600000Y-114300000D03*
X101600000Y-116840000D03*
X101600000Y-119380000D03*
X101600000Y-121920000D03*
X101600000Y-124460000D03*
X101600000Y-127000000D03*
%TD*%
M02*
