%TF.GenerationSoftware,KiCad,Pcbnew,(6.0.10)*%
%TF.CreationDate,2023-01-22T23:50:18+10:00*%
%TF.ProjectId,ESP32-S3-Breakout,45535033-322d-4533-932d-427265616b6f,rev?*%
%TF.SameCoordinates,Original*%
%TF.FileFunction,Legend,Bot*%
%TF.FilePolarity,Positive*%
%FSLAX46Y46*%
G04 Gerber Fmt 4.6, Leading zero omitted, Abs format (unit mm)*
G04 Created by KiCad (PCBNEW (6.0.10)) date 2023-01-22 23:50:18*
%MOMM*%
%LPD*%
G01*
G04 APERTURE LIST*
%ADD10C,0.200000*%
%ADD11C,0.300000*%
%ADD12C,0.150000*%
%ADD13C,0.120000*%
%ADD14C,0.650000*%
%ADD15O,1.000000X2.100000*%
%ADD16O,1.000000X1.600000*%
%ADD17C,0.500000*%
%ADD18R,1.700000X1.700000*%
%ADD19O,1.700000X1.700000*%
G04 APERTURE END LIST*
D10*
X81870095Y-117546380D02*
X81870095Y-116546380D01*
X81203428Y-116546380D02*
X81012952Y-116546380D01*
X80917714Y-116594000D01*
X80822476Y-116689238D01*
X80774857Y-116879714D01*
X80774857Y-117213047D01*
X80822476Y-117403523D01*
X80917714Y-117498761D01*
X81012952Y-117546380D01*
X81203428Y-117546380D01*
X81298666Y-117498761D01*
X81393904Y-117403523D01*
X81441523Y-117213047D01*
X81441523Y-116879714D01*
X81393904Y-116689238D01*
X81298666Y-116594000D01*
X81203428Y-116546380D01*
X80298666Y-117546380D02*
X80108190Y-117546380D01*
X80012952Y-117498761D01*
X79965333Y-117451142D01*
X79870095Y-117308285D01*
X79822476Y-117117809D01*
X79822476Y-116736857D01*
X79870095Y-116641619D01*
X79917714Y-116594000D01*
X80012952Y-116546380D01*
X80203428Y-116546380D01*
X80298666Y-116594000D01*
X80346285Y-116641619D01*
X80393904Y-116736857D01*
X80393904Y-116974952D01*
X80346285Y-117070190D01*
X80298666Y-117117809D01*
X80203428Y-117165428D01*
X80012952Y-117165428D01*
X79917714Y-117117809D01*
X79870095Y-117070190D01*
X79822476Y-116974952D01*
X82822476Y-115006380D02*
X82822476Y-114006380D01*
X82155809Y-114006380D02*
X81965333Y-114006380D01*
X81870095Y-114054000D01*
X81774857Y-114149238D01*
X81727238Y-114339714D01*
X81727238Y-114673047D01*
X81774857Y-114863523D01*
X81870095Y-114958761D01*
X81965333Y-115006380D01*
X82155809Y-115006380D01*
X82251047Y-114958761D01*
X82346285Y-114863523D01*
X82393904Y-114673047D01*
X82393904Y-114339714D01*
X82346285Y-114149238D01*
X82251047Y-114054000D01*
X82155809Y-114006380D01*
X80870095Y-114339714D02*
X80870095Y-115006380D01*
X81108190Y-113958761D02*
X81346285Y-114673047D01*
X80727238Y-114673047D01*
X79917714Y-114006380D02*
X80108190Y-114006380D01*
X80203428Y-114054000D01*
X80251047Y-114101619D01*
X80346285Y-114244476D01*
X80393904Y-114434952D01*
X80393904Y-114815904D01*
X80346285Y-114911142D01*
X80298666Y-114958761D01*
X80203428Y-115006380D01*
X80012952Y-115006380D01*
X79917714Y-114958761D01*
X79870095Y-114911142D01*
X79822476Y-114815904D01*
X79822476Y-114577809D01*
X79870095Y-114482571D01*
X79917714Y-114434952D01*
X80012952Y-114387333D01*
X80203428Y-114387333D01*
X80298666Y-114434952D01*
X80346285Y-114482571D01*
X80393904Y-114577809D01*
X98183904Y-79446380D02*
X98183904Y-78446380D01*
X97517238Y-78446380D02*
X97326761Y-78446380D01*
X97231523Y-78494000D01*
X97136285Y-78589238D01*
X97088666Y-78779714D01*
X97088666Y-79113047D01*
X97136285Y-79303523D01*
X97231523Y-79398761D01*
X97326761Y-79446380D01*
X97517238Y-79446380D01*
X97612476Y-79398761D01*
X97707714Y-79303523D01*
X97755333Y-79113047D01*
X97755333Y-78779714D01*
X97707714Y-78589238D01*
X97612476Y-78494000D01*
X97517238Y-78446380D01*
X96136285Y-79446380D02*
X96707714Y-79446380D01*
X96422000Y-79446380D02*
X96422000Y-78446380D01*
X96517238Y-78589238D01*
X96612476Y-78684476D01*
X96707714Y-78732095D01*
X98183904Y-89606380D02*
X98183904Y-88606380D01*
X97517238Y-88606380D02*
X97326761Y-88606380D01*
X97231523Y-88654000D01*
X97136285Y-88749238D01*
X97088666Y-88939714D01*
X97088666Y-89273047D01*
X97136285Y-89463523D01*
X97231523Y-89558761D01*
X97326761Y-89606380D01*
X97517238Y-89606380D01*
X97612476Y-89558761D01*
X97707714Y-89463523D01*
X97755333Y-89273047D01*
X97755333Y-88939714D01*
X97707714Y-88749238D01*
X97612476Y-88654000D01*
X97517238Y-88606380D01*
X96231523Y-88939714D02*
X96231523Y-89606380D01*
X96469619Y-88558761D02*
X96707714Y-89273047D01*
X96088666Y-89273047D01*
X95755333Y-88701619D02*
X95707714Y-88654000D01*
X95612476Y-88606380D01*
X95374380Y-88606380D01*
X95279142Y-88654000D01*
X95231523Y-88701619D01*
X95183904Y-88796857D01*
X95183904Y-88892095D01*
X95231523Y-89034952D01*
X95802952Y-89606380D01*
X95183904Y-89606380D01*
X82124095Y-87066380D02*
X82124095Y-86066380D01*
X81457428Y-86066380D02*
X81266952Y-86066380D01*
X81171714Y-86114000D01*
X81076476Y-86209238D01*
X81028857Y-86399714D01*
X81028857Y-86733047D01*
X81076476Y-86923523D01*
X81171714Y-87018761D01*
X81266952Y-87066380D01*
X81457428Y-87066380D01*
X81552666Y-87018761D01*
X81647904Y-86923523D01*
X81695523Y-86733047D01*
X81695523Y-86399714D01*
X81647904Y-86209238D01*
X81552666Y-86114000D01*
X81457428Y-86066380D01*
X80124095Y-86066380D02*
X80600285Y-86066380D01*
X80647904Y-86542571D01*
X80600285Y-86494952D01*
X80505047Y-86447333D01*
X80266952Y-86447333D01*
X80171714Y-86494952D01*
X80124095Y-86542571D01*
X80076476Y-86637809D01*
X80076476Y-86875904D01*
X80124095Y-86971142D01*
X80171714Y-87018761D01*
X80266952Y-87066380D01*
X80505047Y-87066380D01*
X80600285Y-87018761D01*
X80647904Y-86971142D01*
X82822476Y-120086380D02*
X82822476Y-119086380D01*
X82155809Y-119086380D02*
X81965333Y-119086380D01*
X81870095Y-119134000D01*
X81774857Y-119229238D01*
X81727238Y-119419714D01*
X81727238Y-119753047D01*
X81774857Y-119943523D01*
X81870095Y-120038761D01*
X81965333Y-120086380D01*
X82155809Y-120086380D01*
X82251047Y-120038761D01*
X82346285Y-119943523D01*
X82393904Y-119753047D01*
X82393904Y-119419714D01*
X82346285Y-119229238D01*
X82251047Y-119134000D01*
X82155809Y-119086380D01*
X80774857Y-120086380D02*
X81346285Y-120086380D01*
X81060571Y-120086380D02*
X81060571Y-119086380D01*
X81155809Y-119229238D01*
X81251047Y-119324476D01*
X81346285Y-119372095D01*
X80155809Y-119086380D02*
X80060571Y-119086380D01*
X79965333Y-119134000D01*
X79917714Y-119181619D01*
X79870095Y-119276857D01*
X79822476Y-119467333D01*
X79822476Y-119705428D01*
X79870095Y-119895904D01*
X79917714Y-119991142D01*
X79965333Y-120038761D01*
X80060571Y-120086380D01*
X80155809Y-120086380D01*
X80251047Y-120038761D01*
X80298666Y-119991142D01*
X80346285Y-119895904D01*
X80393904Y-119705428D01*
X80393904Y-119467333D01*
X80346285Y-119276857D01*
X80298666Y-119181619D01*
X80251047Y-119134000D01*
X80155809Y-119086380D01*
X97453714Y-126706380D02*
X97929904Y-126706380D01*
X97977523Y-127182571D01*
X97929904Y-127134952D01*
X97834666Y-127087333D01*
X97596571Y-127087333D01*
X97501333Y-127134952D01*
X97453714Y-127182571D01*
X97406095Y-127277809D01*
X97406095Y-127515904D01*
X97453714Y-127611142D01*
X97501333Y-127658761D01*
X97596571Y-127706380D01*
X97834666Y-127706380D01*
X97929904Y-127658761D01*
X97977523Y-127611142D01*
X97120380Y-126706380D02*
X96787047Y-127706380D01*
X96453714Y-126706380D01*
X97929904Y-112466380D02*
X97929904Y-111466380D01*
X97263238Y-111466380D02*
X97072761Y-111466380D01*
X96977523Y-111514000D01*
X96882285Y-111609238D01*
X96834666Y-111799714D01*
X96834666Y-112133047D01*
X96882285Y-112323523D01*
X96977523Y-112418761D01*
X97072761Y-112466380D01*
X97263238Y-112466380D01*
X97358476Y-112418761D01*
X97453714Y-112323523D01*
X97501333Y-112133047D01*
X97501333Y-111799714D01*
X97453714Y-111609238D01*
X97358476Y-111514000D01*
X97263238Y-111466380D01*
X95977523Y-111799714D02*
X95977523Y-112466380D01*
X96215619Y-111418761D02*
X96453714Y-112133047D01*
X95834666Y-112133047D01*
X94977523Y-111466380D02*
X95453714Y-111466380D01*
X95501333Y-111942571D01*
X95453714Y-111894952D01*
X95358476Y-111847333D01*
X95120380Y-111847333D01*
X95025142Y-111894952D01*
X94977523Y-111942571D01*
X94929904Y-112037809D01*
X94929904Y-112275904D01*
X94977523Y-112371142D01*
X95025142Y-112418761D01*
X95120380Y-112466380D01*
X95358476Y-112466380D01*
X95453714Y-112418761D01*
X95501333Y-112371142D01*
X98326761Y-83526380D02*
X97755333Y-83526380D01*
X98041047Y-84526380D02*
X98041047Y-83526380D01*
X97517238Y-83526380D02*
X96850571Y-84526380D01*
X96850571Y-83526380D02*
X97517238Y-84526380D01*
X96469619Y-84526380D02*
X96469619Y-83526380D01*
X96231523Y-83526380D01*
X96088666Y-83574000D01*
X95993428Y-83669238D01*
X95945809Y-83764476D01*
X95898190Y-83954952D01*
X95898190Y-84097809D01*
X95945809Y-84288285D01*
X95993428Y-84383523D01*
X96088666Y-84478761D01*
X96231523Y-84526380D01*
X96469619Y-84526380D01*
X95279142Y-83526380D02*
X95183904Y-83526380D01*
X95088666Y-83574000D01*
X95041047Y-83621619D01*
X94993428Y-83716857D01*
X94945809Y-83907333D01*
X94945809Y-84145428D01*
X94993428Y-84335904D01*
X95041047Y-84431142D01*
X95088666Y-84478761D01*
X95183904Y-84526380D01*
X95279142Y-84526380D01*
X95374380Y-84478761D01*
X95422000Y-84431142D01*
X95469619Y-84335904D01*
X95517238Y-84145428D01*
X95517238Y-83907333D01*
X95469619Y-83716857D01*
X95422000Y-83621619D01*
X95374380Y-83574000D01*
X95279142Y-83526380D01*
X81600285Y-81462571D02*
X81266952Y-81462571D01*
X81124095Y-81986380D02*
X81600285Y-81986380D01*
X81600285Y-80986380D01*
X81124095Y-80986380D01*
X80695523Y-81986380D02*
X80695523Y-80986380D01*
X80124095Y-81986380D01*
X80124095Y-80986380D01*
X98183904Y-94686380D02*
X98183904Y-93686380D01*
X97517238Y-93686380D02*
X97326761Y-93686380D01*
X97231523Y-93734000D01*
X97136285Y-93829238D01*
X97088666Y-94019714D01*
X97088666Y-94353047D01*
X97136285Y-94543523D01*
X97231523Y-94638761D01*
X97326761Y-94686380D01*
X97517238Y-94686380D01*
X97612476Y-94638761D01*
X97707714Y-94543523D01*
X97755333Y-94353047D01*
X97755333Y-94019714D01*
X97707714Y-93829238D01*
X97612476Y-93734000D01*
X97517238Y-93686380D01*
X96231523Y-94019714D02*
X96231523Y-94686380D01*
X96469619Y-93638761D02*
X96707714Y-94353047D01*
X96088666Y-94353047D01*
X95517238Y-93686380D02*
X95422000Y-93686380D01*
X95326761Y-93734000D01*
X95279142Y-93781619D01*
X95231523Y-93876857D01*
X95183904Y-94067333D01*
X95183904Y-94305428D01*
X95231523Y-94495904D01*
X95279142Y-94591142D01*
X95326761Y-94638761D01*
X95422000Y-94686380D01*
X95517238Y-94686380D01*
X95612476Y-94638761D01*
X95660095Y-94591142D01*
X95707714Y-94495904D01*
X95755333Y-94305428D01*
X95755333Y-94067333D01*
X95707714Y-93876857D01*
X95660095Y-93781619D01*
X95612476Y-93734000D01*
X95517238Y-93686380D01*
D11*
X91614761Y-121523523D02*
X93233809Y-121523523D01*
X93424285Y-121618761D01*
X93519523Y-121714000D01*
X93614761Y-121904476D01*
X93614761Y-122285428D01*
X93519523Y-122475904D01*
X93424285Y-122571142D01*
X93233809Y-122666380D01*
X91614761Y-122666380D01*
X93043333Y-123523523D02*
X93043333Y-124475904D01*
X93614761Y-123333047D02*
X91614761Y-123999714D01*
X93614761Y-124666380D01*
X93614761Y-126475904D02*
X92662380Y-125809238D01*
X93614761Y-125333047D02*
X91614761Y-125333047D01*
X91614761Y-126094952D01*
X91710000Y-126285428D01*
X91805238Y-126380666D01*
X91995714Y-126475904D01*
X92281428Y-126475904D01*
X92471904Y-126380666D01*
X92567142Y-126285428D01*
X92662380Y-126094952D01*
X92662380Y-125333047D01*
X91614761Y-127047333D02*
X91614761Y-128190190D01*
X93614761Y-127618761D02*
X91614761Y-127618761D01*
D10*
X97929904Y-109926380D02*
X97929904Y-108926380D01*
X97263238Y-108926380D02*
X97072761Y-108926380D01*
X96977523Y-108974000D01*
X96882285Y-109069238D01*
X96834666Y-109259714D01*
X96834666Y-109593047D01*
X96882285Y-109783523D01*
X96977523Y-109878761D01*
X97072761Y-109926380D01*
X97263238Y-109926380D01*
X97358476Y-109878761D01*
X97453714Y-109783523D01*
X97501333Y-109593047D01*
X97501333Y-109259714D01*
X97453714Y-109069238D01*
X97358476Y-108974000D01*
X97263238Y-108926380D01*
X96215619Y-108926380D02*
X96120380Y-108926380D01*
X96025142Y-108974000D01*
X95977523Y-109021619D01*
X95929904Y-109116857D01*
X95882285Y-109307333D01*
X95882285Y-109545428D01*
X95929904Y-109735904D01*
X95977523Y-109831142D01*
X96025142Y-109878761D01*
X96120380Y-109926380D01*
X96215619Y-109926380D01*
X96310857Y-109878761D01*
X96358476Y-109831142D01*
X96406095Y-109735904D01*
X96453714Y-109545428D01*
X96453714Y-109307333D01*
X96406095Y-109116857D01*
X96358476Y-109021619D01*
X96310857Y-108974000D01*
X96215619Y-108926380D01*
D12*
X90257142Y-82959380D02*
X90590476Y-82483190D01*
X90828571Y-82959380D02*
X90828571Y-81959380D01*
X90447619Y-81959380D01*
X90352380Y-82007000D01*
X90304761Y-82054619D01*
X90257142Y-82149857D01*
X90257142Y-82292714D01*
X90304761Y-82387952D01*
X90352380Y-82435571D01*
X90447619Y-82483190D01*
X90828571Y-82483190D01*
X89447619Y-82911761D02*
X89542857Y-82959380D01*
X89733333Y-82959380D01*
X89828571Y-82911761D01*
X89876190Y-82816523D01*
X89876190Y-82435571D01*
X89828571Y-82340333D01*
X89733333Y-82292714D01*
X89542857Y-82292714D01*
X89447619Y-82340333D01*
X89400000Y-82435571D01*
X89400000Y-82530809D01*
X89876190Y-82626047D01*
X89066666Y-82292714D02*
X88828571Y-82959380D01*
X88590476Y-82292714D01*
X86923809Y-82959380D02*
X87495238Y-82959380D01*
X87209523Y-82959380D02*
X87209523Y-81959380D01*
X87304761Y-82102238D01*
X87400000Y-82197476D01*
X87495238Y-82245095D01*
X91519047Y-84569380D02*
X92090476Y-84569380D01*
X91804761Y-84569380D02*
X91804761Y-83569380D01*
X91900000Y-83712238D01*
X91995238Y-83807476D01*
X92090476Y-83855095D01*
X91138095Y-83664619D02*
X91090476Y-83617000D01*
X90995238Y-83569380D01*
X90757142Y-83569380D01*
X90661904Y-83617000D01*
X90614285Y-83664619D01*
X90566666Y-83759857D01*
X90566666Y-83855095D01*
X90614285Y-83997952D01*
X91185714Y-84569380D01*
X90566666Y-84569380D01*
X89423809Y-83521761D02*
X90280952Y-84807476D01*
X89138095Y-83664619D02*
X89090476Y-83617000D01*
X88995238Y-83569380D01*
X88757142Y-83569380D01*
X88661904Y-83617000D01*
X88614285Y-83664619D01*
X88566666Y-83759857D01*
X88566666Y-83855095D01*
X88614285Y-83997952D01*
X89185714Y-84569380D01*
X88566666Y-84569380D01*
X87947619Y-83569380D02*
X87852380Y-83569380D01*
X87757142Y-83617000D01*
X87709523Y-83664619D01*
X87661904Y-83759857D01*
X87614285Y-83950333D01*
X87614285Y-84188428D01*
X87661904Y-84378904D01*
X87709523Y-84474142D01*
X87757142Y-84521761D01*
X87852380Y-84569380D01*
X87947619Y-84569380D01*
X88042857Y-84521761D01*
X88090476Y-84474142D01*
X88138095Y-84378904D01*
X88185714Y-84188428D01*
X88185714Y-83950333D01*
X88138095Y-83759857D01*
X88090476Y-83664619D01*
X88042857Y-83617000D01*
X87947619Y-83569380D01*
X87233333Y-83664619D02*
X87185714Y-83617000D01*
X87090476Y-83569380D01*
X86852380Y-83569380D01*
X86757142Y-83617000D01*
X86709523Y-83664619D01*
X86661904Y-83759857D01*
X86661904Y-83855095D01*
X86709523Y-83997952D01*
X87280952Y-84569380D01*
X86661904Y-84569380D01*
X86280952Y-83664619D02*
X86233333Y-83617000D01*
X86138095Y-83569380D01*
X85900000Y-83569380D01*
X85804761Y-83617000D01*
X85757142Y-83664619D01*
X85709523Y-83759857D01*
X85709523Y-83855095D01*
X85757142Y-83997952D01*
X86328571Y-84569380D01*
X85709523Y-84569380D01*
D10*
X80727238Y-126706380D02*
X81203428Y-126706380D01*
X81251047Y-127182571D01*
X81203428Y-127134952D01*
X81108190Y-127087333D01*
X80870095Y-127087333D01*
X80774857Y-127134952D01*
X80727238Y-127182571D01*
X80679619Y-127277809D01*
X80679619Y-127515904D01*
X80727238Y-127611142D01*
X80774857Y-127658761D01*
X80870095Y-127706380D01*
X81108190Y-127706380D01*
X81203428Y-127658761D01*
X81251047Y-127611142D01*
X80393904Y-126706380D02*
X80060571Y-127706380D01*
X79727238Y-126706380D01*
X82822476Y-125166380D02*
X82822476Y-124166380D01*
X82155809Y-124166380D02*
X81965333Y-124166380D01*
X81870095Y-124214000D01*
X81774857Y-124309238D01*
X81727238Y-124499714D01*
X81727238Y-124833047D01*
X81774857Y-125023523D01*
X81870095Y-125118761D01*
X81965333Y-125166380D01*
X82155809Y-125166380D01*
X82251047Y-125118761D01*
X82346285Y-125023523D01*
X82393904Y-124833047D01*
X82393904Y-124499714D01*
X82346285Y-124309238D01*
X82251047Y-124214000D01*
X82155809Y-124166380D01*
X80774857Y-125166380D02*
X81346285Y-125166380D01*
X81060571Y-125166380D02*
X81060571Y-124166380D01*
X81155809Y-124309238D01*
X81251047Y-124404476D01*
X81346285Y-124452095D01*
X80393904Y-124261619D02*
X80346285Y-124214000D01*
X80251047Y-124166380D01*
X80012952Y-124166380D01*
X79917714Y-124214000D01*
X79870095Y-124261619D01*
X79822476Y-124356857D01*
X79822476Y-124452095D01*
X79870095Y-124594952D01*
X80441523Y-125166380D01*
X79822476Y-125166380D01*
X82171714Y-75954000D02*
X82266952Y-75906380D01*
X82409809Y-75906380D01*
X82552666Y-75954000D01*
X82647904Y-76049238D01*
X82695523Y-76144476D01*
X82743142Y-76334952D01*
X82743142Y-76477809D01*
X82695523Y-76668285D01*
X82647904Y-76763523D01*
X82552666Y-76858761D01*
X82409809Y-76906380D01*
X82314571Y-76906380D01*
X82171714Y-76858761D01*
X82124095Y-76811142D01*
X82124095Y-76477809D01*
X82314571Y-76477809D01*
X81695523Y-76906380D02*
X81695523Y-75906380D01*
X81124095Y-76906380D01*
X81124095Y-75906380D01*
X80647904Y-76906380D02*
X80647904Y-75906380D01*
X80409809Y-75906380D01*
X80266952Y-75954000D01*
X80171714Y-76049238D01*
X80124095Y-76144476D01*
X80076476Y-76334952D01*
X80076476Y-76477809D01*
X80124095Y-76668285D01*
X80171714Y-76763523D01*
X80266952Y-76858761D01*
X80409809Y-76906380D01*
X80647904Y-76906380D01*
X98183904Y-92146380D02*
X98183904Y-91146380D01*
X97517238Y-91146380D02*
X97326761Y-91146380D01*
X97231523Y-91194000D01*
X97136285Y-91289238D01*
X97088666Y-91479714D01*
X97088666Y-91813047D01*
X97136285Y-92003523D01*
X97231523Y-92098761D01*
X97326761Y-92146380D01*
X97517238Y-92146380D01*
X97612476Y-92098761D01*
X97707714Y-92003523D01*
X97755333Y-91813047D01*
X97755333Y-91479714D01*
X97707714Y-91289238D01*
X97612476Y-91194000D01*
X97517238Y-91146380D01*
X96231523Y-91479714D02*
X96231523Y-92146380D01*
X96469619Y-91098761D02*
X96707714Y-91813047D01*
X96088666Y-91813047D01*
X95183904Y-92146380D02*
X95755333Y-92146380D01*
X95469619Y-92146380D02*
X95469619Y-91146380D01*
X95564857Y-91289238D01*
X95660095Y-91384476D01*
X95755333Y-91432095D01*
X82822476Y-109926380D02*
X82822476Y-108926380D01*
X82155809Y-108926380D02*
X81965333Y-108926380D01*
X81870095Y-108974000D01*
X81774857Y-109069238D01*
X81727238Y-109259714D01*
X81727238Y-109593047D01*
X81774857Y-109783523D01*
X81870095Y-109878761D01*
X81965333Y-109926380D01*
X82155809Y-109926380D01*
X82251047Y-109878761D01*
X82346285Y-109783523D01*
X82393904Y-109593047D01*
X82393904Y-109259714D01*
X82346285Y-109069238D01*
X82251047Y-108974000D01*
X82155809Y-108926380D01*
X81346285Y-109021619D02*
X81298666Y-108974000D01*
X81203428Y-108926380D01*
X80965333Y-108926380D01*
X80870095Y-108974000D01*
X80822476Y-109021619D01*
X80774857Y-109116857D01*
X80774857Y-109212095D01*
X80822476Y-109354952D01*
X81393904Y-109926380D01*
X80774857Y-109926380D01*
X80155809Y-108926380D02*
X80060571Y-108926380D01*
X79965333Y-108974000D01*
X79917714Y-109021619D01*
X79870095Y-109116857D01*
X79822476Y-109307333D01*
X79822476Y-109545428D01*
X79870095Y-109735904D01*
X79917714Y-109831142D01*
X79965333Y-109878761D01*
X80060571Y-109926380D01*
X80155809Y-109926380D01*
X80251047Y-109878761D01*
X80298666Y-109831142D01*
X80346285Y-109735904D01*
X80393904Y-109545428D01*
X80393904Y-109307333D01*
X80346285Y-109116857D01*
X80298666Y-109021619D01*
X80251047Y-108974000D01*
X80155809Y-108926380D01*
X81870095Y-112466380D02*
X81870095Y-111466380D01*
X81203428Y-111466380D02*
X81012952Y-111466380D01*
X80917714Y-111514000D01*
X80822476Y-111609238D01*
X80774857Y-111799714D01*
X80774857Y-112133047D01*
X80822476Y-112323523D01*
X80917714Y-112418761D01*
X81012952Y-112466380D01*
X81203428Y-112466380D01*
X81298666Y-112418761D01*
X81393904Y-112323523D01*
X81441523Y-112133047D01*
X81441523Y-111799714D01*
X81393904Y-111609238D01*
X81298666Y-111514000D01*
X81203428Y-111466380D01*
X80441523Y-111466380D02*
X79822476Y-111466380D01*
X80155809Y-111847333D01*
X80012952Y-111847333D01*
X79917714Y-111894952D01*
X79870095Y-111942571D01*
X79822476Y-112037809D01*
X79822476Y-112275904D01*
X79870095Y-112371142D01*
X79917714Y-112418761D01*
X80012952Y-112466380D01*
X80298666Y-112466380D01*
X80393904Y-112418761D01*
X80441523Y-112371142D01*
X82124095Y-92146380D02*
X82124095Y-91146380D01*
X81457428Y-91146380D02*
X81266952Y-91146380D01*
X81171714Y-91194000D01*
X81076476Y-91289238D01*
X81028857Y-91479714D01*
X81028857Y-91813047D01*
X81076476Y-92003523D01*
X81171714Y-92098761D01*
X81266952Y-92146380D01*
X81457428Y-92146380D01*
X81552666Y-92098761D01*
X81647904Y-92003523D01*
X81695523Y-91813047D01*
X81695523Y-91479714D01*
X81647904Y-91289238D01*
X81552666Y-91194000D01*
X81457428Y-91146380D01*
X80695523Y-91146380D02*
X80028857Y-91146380D01*
X80457428Y-92146380D01*
X82124095Y-89606380D02*
X82124095Y-88606380D01*
X81457428Y-88606380D02*
X81266952Y-88606380D01*
X81171714Y-88654000D01*
X81076476Y-88749238D01*
X81028857Y-88939714D01*
X81028857Y-89273047D01*
X81076476Y-89463523D01*
X81171714Y-89558761D01*
X81266952Y-89606380D01*
X81457428Y-89606380D01*
X81552666Y-89558761D01*
X81647904Y-89463523D01*
X81695523Y-89273047D01*
X81695523Y-88939714D01*
X81647904Y-88749238D01*
X81552666Y-88654000D01*
X81457428Y-88606380D01*
X80171714Y-88606380D02*
X80362190Y-88606380D01*
X80457428Y-88654000D01*
X80505047Y-88701619D01*
X80600285Y-88844476D01*
X80647904Y-89034952D01*
X80647904Y-89415904D01*
X80600285Y-89511142D01*
X80552666Y-89558761D01*
X80457428Y-89606380D01*
X80266952Y-89606380D01*
X80171714Y-89558761D01*
X80124095Y-89511142D01*
X80076476Y-89415904D01*
X80076476Y-89177809D01*
X80124095Y-89082571D01*
X80171714Y-89034952D01*
X80266952Y-88987333D01*
X80457428Y-88987333D01*
X80552666Y-89034952D01*
X80600285Y-89082571D01*
X80647904Y-89177809D01*
X82822476Y-122626380D02*
X82822476Y-121626380D01*
X82155809Y-121626380D02*
X81965333Y-121626380D01*
X81870095Y-121674000D01*
X81774857Y-121769238D01*
X81727238Y-121959714D01*
X81727238Y-122293047D01*
X81774857Y-122483523D01*
X81870095Y-122578761D01*
X81965333Y-122626380D01*
X82155809Y-122626380D01*
X82251047Y-122578761D01*
X82346285Y-122483523D01*
X82393904Y-122293047D01*
X82393904Y-121959714D01*
X82346285Y-121769238D01*
X82251047Y-121674000D01*
X82155809Y-121626380D01*
X80774857Y-122626380D02*
X81346285Y-122626380D01*
X81060571Y-122626380D02*
X81060571Y-121626380D01*
X81155809Y-121769238D01*
X81251047Y-121864476D01*
X81346285Y-121912095D01*
X79822476Y-122626380D02*
X80393904Y-122626380D01*
X80108190Y-122626380D02*
X80108190Y-121626380D01*
X80203428Y-121769238D01*
X80298666Y-121864476D01*
X80393904Y-121912095D01*
X98183904Y-97226380D02*
X98183904Y-96226380D01*
X97517238Y-96226380D02*
X97326761Y-96226380D01*
X97231523Y-96274000D01*
X97136285Y-96369238D01*
X97088666Y-96559714D01*
X97088666Y-96893047D01*
X97136285Y-97083523D01*
X97231523Y-97178761D01*
X97326761Y-97226380D01*
X97517238Y-97226380D01*
X97612476Y-97178761D01*
X97707714Y-97083523D01*
X97755333Y-96893047D01*
X97755333Y-96559714D01*
X97707714Y-96369238D01*
X97612476Y-96274000D01*
X97517238Y-96226380D01*
X96755333Y-96226380D02*
X96136285Y-96226380D01*
X96469619Y-96607333D01*
X96326761Y-96607333D01*
X96231523Y-96654952D01*
X96183904Y-96702571D01*
X96136285Y-96797809D01*
X96136285Y-97035904D01*
X96183904Y-97131142D01*
X96231523Y-97178761D01*
X96326761Y-97226380D01*
X96612476Y-97226380D01*
X96707714Y-97178761D01*
X96755333Y-97131142D01*
X95660095Y-97226380D02*
X95469619Y-97226380D01*
X95374380Y-97178761D01*
X95326761Y-97131142D01*
X95231523Y-96988285D01*
X95183904Y-96797809D01*
X95183904Y-96416857D01*
X95231523Y-96321619D01*
X95279142Y-96274000D01*
X95374380Y-96226380D01*
X95564857Y-96226380D01*
X95660095Y-96274000D01*
X95707714Y-96321619D01*
X95755333Y-96416857D01*
X95755333Y-96654952D01*
X95707714Y-96750190D01*
X95660095Y-96797809D01*
X95564857Y-96845428D01*
X95374380Y-96845428D01*
X95279142Y-96797809D01*
X95231523Y-96750190D01*
X95183904Y-96654952D01*
D11*
X87401142Y-99505428D02*
X87401142Y-100172095D01*
X88448761Y-100457809D02*
X88448761Y-99505428D01*
X86448761Y-99505428D01*
X86448761Y-100457809D01*
X88353523Y-101219714D02*
X88448761Y-101505428D01*
X88448761Y-101981619D01*
X88353523Y-102172095D01*
X88258285Y-102267333D01*
X88067809Y-102362571D01*
X87877333Y-102362571D01*
X87686857Y-102267333D01*
X87591619Y-102172095D01*
X87496380Y-101981619D01*
X87401142Y-101600666D01*
X87305904Y-101410190D01*
X87210666Y-101314952D01*
X87020190Y-101219714D01*
X86829714Y-101219714D01*
X86639238Y-101314952D01*
X86544000Y-101410190D01*
X86448761Y-101600666D01*
X86448761Y-102076857D01*
X86544000Y-102362571D01*
X88448761Y-103219714D02*
X86448761Y-103219714D01*
X86448761Y-103981619D01*
X86544000Y-104172095D01*
X86639238Y-104267333D01*
X86829714Y-104362571D01*
X87115428Y-104362571D01*
X87305904Y-104267333D01*
X87401142Y-104172095D01*
X87496380Y-103981619D01*
X87496380Y-103219714D01*
X86448761Y-105029238D02*
X86448761Y-106267333D01*
X87210666Y-105600666D01*
X87210666Y-105886380D01*
X87305904Y-106076857D01*
X87401142Y-106172095D01*
X87591619Y-106267333D01*
X88067809Y-106267333D01*
X88258285Y-106172095D01*
X88353523Y-106076857D01*
X88448761Y-105886380D01*
X88448761Y-105314952D01*
X88353523Y-105124476D01*
X88258285Y-105029238D01*
X86639238Y-107029238D02*
X86544000Y-107124476D01*
X86448761Y-107314952D01*
X86448761Y-107791142D01*
X86544000Y-107981619D01*
X86639238Y-108076857D01*
X86829714Y-108172095D01*
X87020190Y-108172095D01*
X87305904Y-108076857D01*
X88448761Y-106934000D01*
X88448761Y-108172095D01*
X87686857Y-109029238D02*
X87686857Y-110553047D01*
X88353523Y-111410190D02*
X88448761Y-111695904D01*
X88448761Y-112172095D01*
X88353523Y-112362571D01*
X88258285Y-112457809D01*
X88067809Y-112553047D01*
X87877333Y-112553047D01*
X87686857Y-112457809D01*
X87591619Y-112362571D01*
X87496380Y-112172095D01*
X87401142Y-111791142D01*
X87305904Y-111600666D01*
X87210666Y-111505428D01*
X87020190Y-111410190D01*
X86829714Y-111410190D01*
X86639238Y-111505428D01*
X86544000Y-111600666D01*
X86448761Y-111791142D01*
X86448761Y-112267333D01*
X86544000Y-112553047D01*
X86448761Y-113219714D02*
X86448761Y-114457809D01*
X87210666Y-113791142D01*
X87210666Y-114076857D01*
X87305904Y-114267333D01*
X87401142Y-114362571D01*
X87591619Y-114457809D01*
X88067809Y-114457809D01*
X88258285Y-114362571D01*
X88353523Y-114267333D01*
X88448761Y-114076857D01*
X88448761Y-113505428D01*
X88353523Y-113314952D01*
X88258285Y-113219714D01*
X91668761Y-98648285D02*
X89668761Y-98648285D01*
X89668761Y-99124476D01*
X89764000Y-99410190D01*
X89954476Y-99600666D01*
X90144952Y-99695904D01*
X90525904Y-99791142D01*
X90811619Y-99791142D01*
X91192571Y-99695904D01*
X91383047Y-99600666D01*
X91573523Y-99410190D01*
X91668761Y-99124476D01*
X91668761Y-98648285D01*
X90621142Y-100648285D02*
X90621142Y-101314952D01*
X91668761Y-101600666D02*
X91668761Y-100648285D01*
X89668761Y-100648285D01*
X89668761Y-101600666D01*
X89668761Y-102172095D02*
X91668761Y-102838761D01*
X89668761Y-103505428D01*
X91668761Y-105695904D02*
X89668761Y-105695904D01*
X91097333Y-106362571D01*
X89668761Y-107029238D01*
X91668761Y-107029238D01*
X91668761Y-108267333D02*
X91573523Y-108076857D01*
X91478285Y-107981619D01*
X91287809Y-107886380D01*
X90716380Y-107886380D01*
X90525904Y-107981619D01*
X90430666Y-108076857D01*
X90335428Y-108267333D01*
X90335428Y-108553047D01*
X90430666Y-108743523D01*
X90525904Y-108838761D01*
X90716380Y-108934000D01*
X91287809Y-108934000D01*
X91478285Y-108838761D01*
X91573523Y-108743523D01*
X91668761Y-108553047D01*
X91668761Y-108267333D01*
X91668761Y-110648285D02*
X89668761Y-110648285D01*
X91573523Y-110648285D02*
X91668761Y-110457809D01*
X91668761Y-110076857D01*
X91573523Y-109886380D01*
X91478285Y-109791142D01*
X91287809Y-109695904D01*
X90716380Y-109695904D01*
X90525904Y-109791142D01*
X90430666Y-109886380D01*
X90335428Y-110076857D01*
X90335428Y-110457809D01*
X90430666Y-110648285D01*
X90335428Y-112457809D02*
X91668761Y-112457809D01*
X90335428Y-111600666D02*
X91383047Y-111600666D01*
X91573523Y-111695904D01*
X91668761Y-111886380D01*
X91668761Y-112172095D01*
X91573523Y-112362571D01*
X91478285Y-112457809D01*
X91668761Y-113695904D02*
X91573523Y-113505428D01*
X91383047Y-113410190D01*
X89668761Y-113410190D01*
X91573523Y-115219714D02*
X91668761Y-115029238D01*
X91668761Y-114648285D01*
X91573523Y-114457809D01*
X91383047Y-114362571D01*
X90621142Y-114362571D01*
X90430666Y-114457809D01*
X90335428Y-114648285D01*
X90335428Y-115029238D01*
X90430666Y-115219714D01*
X90621142Y-115314952D01*
X90811619Y-115314952D01*
X91002095Y-114362571D01*
D10*
X97929904Y-117546380D02*
X97929904Y-116546380D01*
X97263238Y-116546380D02*
X97072761Y-116546380D01*
X96977523Y-116594000D01*
X96882285Y-116689238D01*
X96834666Y-116879714D01*
X96834666Y-117213047D01*
X96882285Y-117403523D01*
X96977523Y-117498761D01*
X97072761Y-117546380D01*
X97263238Y-117546380D01*
X97358476Y-117498761D01*
X97453714Y-117403523D01*
X97501333Y-117213047D01*
X97501333Y-116879714D01*
X97453714Y-116689238D01*
X97358476Y-116594000D01*
X97263238Y-116546380D01*
X95977523Y-116879714D02*
X95977523Y-117546380D01*
X96215619Y-116498761D02*
X96453714Y-117213047D01*
X95834666Y-117213047D01*
X95548952Y-116546380D02*
X94882285Y-116546380D01*
X95310857Y-117546380D01*
X97612476Y-87066380D02*
X97945809Y-86590190D01*
X98183904Y-87066380D02*
X98183904Y-86066380D01*
X97802952Y-86066380D01*
X97707714Y-86114000D01*
X97660095Y-86161619D01*
X97612476Y-86256857D01*
X97612476Y-86399714D01*
X97660095Y-86494952D01*
X97707714Y-86542571D01*
X97802952Y-86590190D01*
X98183904Y-86590190D01*
X97279142Y-86066380D02*
X96612476Y-87066380D01*
X96612476Y-86066380D02*
X97279142Y-87066380D01*
X96231523Y-87066380D02*
X96231523Y-86066380D01*
X95993428Y-86066380D01*
X95850571Y-86114000D01*
X95755333Y-86209238D01*
X95707714Y-86304476D01*
X95660095Y-86494952D01*
X95660095Y-86637809D01*
X95707714Y-86828285D01*
X95755333Y-86923523D01*
X95850571Y-87018761D01*
X95993428Y-87066380D01*
X96231523Y-87066380D01*
X95041047Y-86066380D02*
X94945809Y-86066380D01*
X94850571Y-86114000D01*
X94802952Y-86161619D01*
X94755333Y-86256857D01*
X94707714Y-86447333D01*
X94707714Y-86685428D01*
X94755333Y-86875904D01*
X94802952Y-86971142D01*
X94850571Y-87018761D01*
X94945809Y-87066380D01*
X95041047Y-87066380D01*
X95136285Y-87018761D01*
X95183904Y-86971142D01*
X95231523Y-86875904D01*
X95279142Y-86685428D01*
X95279142Y-86447333D01*
X95231523Y-86256857D01*
X95183904Y-86161619D01*
X95136285Y-86114000D01*
X95041047Y-86066380D01*
X81870095Y-104846380D02*
X81870095Y-103846380D01*
X81203428Y-103846380D02*
X81012952Y-103846380D01*
X80917714Y-103894000D01*
X80822476Y-103989238D01*
X80774857Y-104179714D01*
X80774857Y-104513047D01*
X80822476Y-104703523D01*
X80917714Y-104798761D01*
X81012952Y-104846380D01*
X81203428Y-104846380D01*
X81298666Y-104798761D01*
X81393904Y-104703523D01*
X81441523Y-104513047D01*
X81441523Y-104179714D01*
X81393904Y-103989238D01*
X81298666Y-103894000D01*
X81203428Y-103846380D01*
X80203428Y-104274952D02*
X80298666Y-104227333D01*
X80346285Y-104179714D01*
X80393904Y-104084476D01*
X80393904Y-104036857D01*
X80346285Y-103941619D01*
X80298666Y-103894000D01*
X80203428Y-103846380D01*
X80012952Y-103846380D01*
X79917714Y-103894000D01*
X79870095Y-103941619D01*
X79822476Y-104036857D01*
X79822476Y-104084476D01*
X79870095Y-104179714D01*
X79917714Y-104227333D01*
X80012952Y-104274952D01*
X80203428Y-104274952D01*
X80298666Y-104322571D01*
X80346285Y-104370190D01*
X80393904Y-104465428D01*
X80393904Y-104655904D01*
X80346285Y-104751142D01*
X80298666Y-104798761D01*
X80203428Y-104846380D01*
X80012952Y-104846380D01*
X79917714Y-104798761D01*
X79870095Y-104751142D01*
X79822476Y-104655904D01*
X79822476Y-104465428D01*
X79870095Y-104370190D01*
X79917714Y-104322571D01*
X80012952Y-104274952D01*
X98183904Y-102306380D02*
X98183904Y-101306380D01*
X97517238Y-101306380D02*
X97326761Y-101306380D01*
X97231523Y-101354000D01*
X97136285Y-101449238D01*
X97088666Y-101639714D01*
X97088666Y-101973047D01*
X97136285Y-102163523D01*
X97231523Y-102258761D01*
X97326761Y-102306380D01*
X97517238Y-102306380D01*
X97612476Y-102258761D01*
X97707714Y-102163523D01*
X97755333Y-101973047D01*
X97755333Y-101639714D01*
X97707714Y-101449238D01*
X97612476Y-101354000D01*
X97517238Y-101306380D01*
X96755333Y-101306380D02*
X96136285Y-101306380D01*
X96469619Y-101687333D01*
X96326761Y-101687333D01*
X96231523Y-101734952D01*
X96183904Y-101782571D01*
X96136285Y-101877809D01*
X96136285Y-102115904D01*
X96183904Y-102211142D01*
X96231523Y-102258761D01*
X96326761Y-102306380D01*
X96612476Y-102306380D01*
X96707714Y-102258761D01*
X96755333Y-102211142D01*
X95802952Y-101306380D02*
X95136285Y-101306380D01*
X95564857Y-102306380D01*
X97660095Y-75954000D02*
X97755333Y-75906380D01*
X97898190Y-75906380D01*
X98041047Y-75954000D01*
X98136285Y-76049238D01*
X98183904Y-76144476D01*
X98231523Y-76334952D01*
X98231523Y-76477809D01*
X98183904Y-76668285D01*
X98136285Y-76763523D01*
X98041047Y-76858761D01*
X97898190Y-76906380D01*
X97802952Y-76906380D01*
X97660095Y-76858761D01*
X97612476Y-76811142D01*
X97612476Y-76477809D01*
X97802952Y-76477809D01*
X97183904Y-76906380D02*
X97183904Y-75906380D01*
X96612476Y-76906380D01*
X96612476Y-75906380D01*
X96136285Y-76906380D02*
X96136285Y-75906380D01*
X95898190Y-75906380D01*
X95755333Y-75954000D01*
X95660095Y-76049238D01*
X95612476Y-76144476D01*
X95564857Y-76334952D01*
X95564857Y-76477809D01*
X95612476Y-76668285D01*
X95660095Y-76763523D01*
X95755333Y-76858761D01*
X95898190Y-76906380D01*
X96136285Y-76906380D01*
X97929904Y-125166380D02*
X97929904Y-124166380D01*
X97263238Y-124166380D02*
X97072761Y-124166380D01*
X96977523Y-124214000D01*
X96882285Y-124309238D01*
X96834666Y-124499714D01*
X96834666Y-124833047D01*
X96882285Y-125023523D01*
X96977523Y-125118761D01*
X97072761Y-125166380D01*
X97263238Y-125166380D01*
X97358476Y-125118761D01*
X97453714Y-125023523D01*
X97501333Y-124833047D01*
X97501333Y-124499714D01*
X97453714Y-124309238D01*
X97358476Y-124214000D01*
X97263238Y-124166380D01*
X95882285Y-125166380D02*
X96453714Y-125166380D01*
X96168000Y-125166380D02*
X96168000Y-124166380D01*
X96263238Y-124309238D01*
X96358476Y-124404476D01*
X96453714Y-124452095D01*
X95548952Y-124166380D02*
X94929904Y-124166380D01*
X95263238Y-124547333D01*
X95120380Y-124547333D01*
X95025142Y-124594952D01*
X94977523Y-124642571D01*
X94929904Y-124737809D01*
X94929904Y-124975904D01*
X94977523Y-125071142D01*
X95025142Y-125118761D01*
X95120380Y-125166380D01*
X95406095Y-125166380D01*
X95501333Y-125118761D01*
X95548952Y-125071142D01*
X98183904Y-81986380D02*
X98183904Y-80986380D01*
X97517238Y-80986380D02*
X97326761Y-80986380D01*
X97231523Y-81034000D01*
X97136285Y-81129238D01*
X97088666Y-81319714D01*
X97088666Y-81653047D01*
X97136285Y-81843523D01*
X97231523Y-81938761D01*
X97326761Y-81986380D01*
X97517238Y-81986380D01*
X97612476Y-81938761D01*
X97707714Y-81843523D01*
X97755333Y-81653047D01*
X97755333Y-81319714D01*
X97707714Y-81129238D01*
X97612476Y-81034000D01*
X97517238Y-80986380D01*
X96707714Y-81081619D02*
X96660095Y-81034000D01*
X96564857Y-80986380D01*
X96326761Y-80986380D01*
X96231523Y-81034000D01*
X96183904Y-81081619D01*
X96136285Y-81176857D01*
X96136285Y-81272095D01*
X96183904Y-81414952D01*
X96755333Y-81986380D01*
X96136285Y-81986380D01*
X82822476Y-107386380D02*
X82822476Y-106386380D01*
X82155809Y-106386380D02*
X81965333Y-106386380D01*
X81870095Y-106434000D01*
X81774857Y-106529238D01*
X81727238Y-106719714D01*
X81727238Y-107053047D01*
X81774857Y-107243523D01*
X81870095Y-107338761D01*
X81965333Y-107386380D01*
X82155809Y-107386380D01*
X82251047Y-107338761D01*
X82346285Y-107243523D01*
X82393904Y-107053047D01*
X82393904Y-106719714D01*
X82346285Y-106529238D01*
X82251047Y-106434000D01*
X82155809Y-106386380D01*
X80774857Y-107386380D02*
X81346285Y-107386380D01*
X81060571Y-107386380D02*
X81060571Y-106386380D01*
X81155809Y-106529238D01*
X81251047Y-106624476D01*
X81346285Y-106672095D01*
X80298666Y-107386380D02*
X80108190Y-107386380D01*
X80012952Y-107338761D01*
X79965333Y-107291142D01*
X79870095Y-107148285D01*
X79822476Y-106957809D01*
X79822476Y-106576857D01*
X79870095Y-106481619D01*
X79917714Y-106434000D01*
X80012952Y-106386380D01*
X80203428Y-106386380D01*
X80298666Y-106434000D01*
X80346285Y-106481619D01*
X80393904Y-106576857D01*
X80393904Y-106814952D01*
X80346285Y-106910190D01*
X80298666Y-106957809D01*
X80203428Y-107005428D01*
X80012952Y-107005428D01*
X79917714Y-106957809D01*
X79870095Y-106910190D01*
X79822476Y-106814952D01*
X82124095Y-84526380D02*
X82124095Y-83526380D01*
X81457428Y-83526380D02*
X81266952Y-83526380D01*
X81171714Y-83574000D01*
X81076476Y-83669238D01*
X81028857Y-83859714D01*
X81028857Y-84193047D01*
X81076476Y-84383523D01*
X81171714Y-84478761D01*
X81266952Y-84526380D01*
X81457428Y-84526380D01*
X81552666Y-84478761D01*
X81647904Y-84383523D01*
X81695523Y-84193047D01*
X81695523Y-83859714D01*
X81647904Y-83669238D01*
X81552666Y-83574000D01*
X81457428Y-83526380D01*
X80171714Y-83859714D02*
X80171714Y-84526380D01*
X80409809Y-83478761D02*
X80647904Y-84193047D01*
X80028857Y-84193047D01*
D11*
X84248761Y-122952190D02*
X85867809Y-122952190D01*
X86058285Y-123047428D01*
X86153523Y-123142666D01*
X86248761Y-123333142D01*
X86248761Y-123714095D01*
X86153523Y-123904571D01*
X86058285Y-123999809D01*
X85867809Y-124095047D01*
X84248761Y-124095047D01*
X86153523Y-124952190D02*
X86248761Y-125237904D01*
X86248761Y-125714095D01*
X86153523Y-125904571D01*
X86058285Y-125999809D01*
X85867809Y-126095047D01*
X85677333Y-126095047D01*
X85486857Y-125999809D01*
X85391619Y-125904571D01*
X85296380Y-125714095D01*
X85201142Y-125333142D01*
X85105904Y-125142666D01*
X85010666Y-125047428D01*
X84820190Y-124952190D01*
X84629714Y-124952190D01*
X84439238Y-125047428D01*
X84344000Y-125142666D01*
X84248761Y-125333142D01*
X84248761Y-125809333D01*
X84344000Y-126095047D01*
X85201142Y-127618857D02*
X85296380Y-127904571D01*
X85391619Y-127999809D01*
X85582095Y-128095047D01*
X85867809Y-128095047D01*
X86058285Y-127999809D01*
X86153523Y-127904571D01*
X86248761Y-127714095D01*
X86248761Y-126952190D01*
X84248761Y-126952190D01*
X84248761Y-127618857D01*
X84344000Y-127809333D01*
X84439238Y-127904571D01*
X84629714Y-127999809D01*
X84820190Y-127999809D01*
X85010666Y-127904571D01*
X85105904Y-127809333D01*
X85201142Y-127618857D01*
X85201142Y-126952190D01*
D10*
X83076476Y-94686380D02*
X83076476Y-93686380D01*
X82409809Y-93686380D02*
X82219333Y-93686380D01*
X82124095Y-93734000D01*
X82028857Y-93829238D01*
X81981238Y-94019714D01*
X81981238Y-94353047D01*
X82028857Y-94543523D01*
X82124095Y-94638761D01*
X82219333Y-94686380D01*
X82409809Y-94686380D01*
X82505047Y-94638761D01*
X82600285Y-94543523D01*
X82647904Y-94353047D01*
X82647904Y-94019714D01*
X82600285Y-93829238D01*
X82505047Y-93734000D01*
X82409809Y-93686380D01*
X81028857Y-94686380D02*
X81600285Y-94686380D01*
X81314571Y-94686380D02*
X81314571Y-93686380D01*
X81409809Y-93829238D01*
X81505047Y-93924476D01*
X81600285Y-93972095D01*
X80124095Y-93686380D02*
X80600285Y-93686380D01*
X80647904Y-94162571D01*
X80600285Y-94114952D01*
X80505047Y-94067333D01*
X80266952Y-94067333D01*
X80171714Y-94114952D01*
X80124095Y-94162571D01*
X80076476Y-94257809D01*
X80076476Y-94495904D01*
X80124095Y-94591142D01*
X80171714Y-94638761D01*
X80266952Y-94686380D01*
X80505047Y-94686380D01*
X80600285Y-94638761D01*
X80647904Y-94591142D01*
X97929904Y-120086380D02*
X97929904Y-119086380D01*
X97263238Y-119086380D02*
X97072761Y-119086380D01*
X96977523Y-119134000D01*
X96882285Y-119229238D01*
X96834666Y-119419714D01*
X96834666Y-119753047D01*
X96882285Y-119943523D01*
X96977523Y-120038761D01*
X97072761Y-120086380D01*
X97263238Y-120086380D01*
X97358476Y-120038761D01*
X97453714Y-119943523D01*
X97501333Y-119753047D01*
X97501333Y-119419714D01*
X97453714Y-119229238D01*
X97358476Y-119134000D01*
X97263238Y-119086380D01*
X96453714Y-119181619D02*
X96406095Y-119134000D01*
X96310857Y-119086380D01*
X96072761Y-119086380D01*
X95977523Y-119134000D01*
X95929904Y-119181619D01*
X95882285Y-119276857D01*
X95882285Y-119372095D01*
X95929904Y-119514952D01*
X96501333Y-120086380D01*
X95882285Y-120086380D01*
X94929904Y-120086380D02*
X95501333Y-120086380D01*
X95215619Y-120086380D02*
X95215619Y-119086380D01*
X95310857Y-119229238D01*
X95406095Y-119324476D01*
X95501333Y-119372095D01*
X82505047Y-78446380D02*
X81886000Y-78446380D01*
X82219333Y-78827333D01*
X82076476Y-78827333D01*
X81981238Y-78874952D01*
X81933619Y-78922571D01*
X81886000Y-79017809D01*
X81886000Y-79255904D01*
X81933619Y-79351142D01*
X81981238Y-79398761D01*
X82076476Y-79446380D01*
X82362190Y-79446380D01*
X82457428Y-79398761D01*
X82505047Y-79351142D01*
X81600285Y-78446380D02*
X81266952Y-79446380D01*
X80933619Y-78446380D01*
X80695523Y-78446380D02*
X80076476Y-78446380D01*
X80409809Y-78827333D01*
X80266952Y-78827333D01*
X80171714Y-78874952D01*
X80124095Y-78922571D01*
X80076476Y-79017809D01*
X80076476Y-79255904D01*
X80124095Y-79351142D01*
X80171714Y-79398761D01*
X80266952Y-79446380D01*
X80552666Y-79446380D01*
X80647904Y-79398761D01*
X80695523Y-79351142D01*
X83076476Y-97226380D02*
X83076476Y-96226380D01*
X82409809Y-96226380D02*
X82219333Y-96226380D01*
X82124095Y-96274000D01*
X82028857Y-96369238D01*
X81981238Y-96559714D01*
X81981238Y-96893047D01*
X82028857Y-97083523D01*
X82124095Y-97178761D01*
X82219333Y-97226380D01*
X82409809Y-97226380D01*
X82505047Y-97178761D01*
X82600285Y-97083523D01*
X82647904Y-96893047D01*
X82647904Y-96559714D01*
X82600285Y-96369238D01*
X82505047Y-96274000D01*
X82409809Y-96226380D01*
X81028857Y-97226380D02*
X81600285Y-97226380D01*
X81314571Y-97226380D02*
X81314571Y-96226380D01*
X81409809Y-96369238D01*
X81505047Y-96464476D01*
X81600285Y-96512095D01*
X80171714Y-96226380D02*
X80362190Y-96226380D01*
X80457428Y-96274000D01*
X80505047Y-96321619D01*
X80600285Y-96464476D01*
X80647904Y-96654952D01*
X80647904Y-97035904D01*
X80600285Y-97131142D01*
X80552666Y-97178761D01*
X80457428Y-97226380D01*
X80266952Y-97226380D01*
X80171714Y-97178761D01*
X80124095Y-97131142D01*
X80076476Y-97035904D01*
X80076476Y-96797809D01*
X80124095Y-96702571D01*
X80171714Y-96654952D01*
X80266952Y-96607333D01*
X80457428Y-96607333D01*
X80552666Y-96654952D01*
X80600285Y-96702571D01*
X80647904Y-96797809D01*
X97929904Y-104846380D02*
X97929904Y-103846380D01*
X97263238Y-103846380D02*
X97072761Y-103846380D01*
X96977523Y-103894000D01*
X96882285Y-103989238D01*
X96834666Y-104179714D01*
X96834666Y-104513047D01*
X96882285Y-104703523D01*
X96977523Y-104798761D01*
X97072761Y-104846380D01*
X97263238Y-104846380D01*
X97358476Y-104798761D01*
X97453714Y-104703523D01*
X97501333Y-104513047D01*
X97501333Y-104179714D01*
X97453714Y-103989238D01*
X97358476Y-103894000D01*
X97263238Y-103846380D01*
X96501333Y-103846380D02*
X95882285Y-103846380D01*
X96215619Y-104227333D01*
X96072761Y-104227333D01*
X95977523Y-104274952D01*
X95929904Y-104322571D01*
X95882285Y-104417809D01*
X95882285Y-104655904D01*
X95929904Y-104751142D01*
X95977523Y-104798761D01*
X96072761Y-104846380D01*
X96358476Y-104846380D01*
X96453714Y-104798761D01*
X96501333Y-104751142D01*
X95025142Y-103846380D02*
X95215619Y-103846380D01*
X95310857Y-103894000D01*
X95358476Y-103941619D01*
X95453714Y-104084476D01*
X95501333Y-104274952D01*
X95501333Y-104655904D01*
X95453714Y-104751142D01*
X95406095Y-104798761D01*
X95310857Y-104846380D01*
X95120380Y-104846380D01*
X95025142Y-104798761D01*
X94977523Y-104751142D01*
X94929904Y-104655904D01*
X94929904Y-104417809D01*
X94977523Y-104322571D01*
X95025142Y-104274952D01*
X95120380Y-104227333D01*
X95310857Y-104227333D01*
X95406095Y-104274952D01*
X95453714Y-104322571D01*
X95501333Y-104417809D01*
X97929904Y-122626380D02*
X97929904Y-121626380D01*
X97263238Y-121626380D02*
X97072761Y-121626380D01*
X96977523Y-121674000D01*
X96882285Y-121769238D01*
X96834666Y-121959714D01*
X96834666Y-122293047D01*
X96882285Y-122483523D01*
X96977523Y-122578761D01*
X97072761Y-122626380D01*
X97263238Y-122626380D01*
X97358476Y-122578761D01*
X97453714Y-122483523D01*
X97501333Y-122293047D01*
X97501333Y-121959714D01*
X97453714Y-121769238D01*
X97358476Y-121674000D01*
X97263238Y-121626380D01*
X95882285Y-122626380D02*
X96453714Y-122626380D01*
X96168000Y-122626380D02*
X96168000Y-121626380D01*
X96263238Y-121769238D01*
X96358476Y-121864476D01*
X96453714Y-121912095D01*
X95025142Y-121959714D02*
X95025142Y-122626380D01*
X95263238Y-121578761D02*
X95501333Y-122293047D01*
X94882285Y-122293047D01*
X97929904Y-107386380D02*
X97929904Y-106386380D01*
X97263238Y-106386380D02*
X97072761Y-106386380D01*
X96977523Y-106434000D01*
X96882285Y-106529238D01*
X96834666Y-106719714D01*
X96834666Y-107053047D01*
X96882285Y-107243523D01*
X96977523Y-107338761D01*
X97072761Y-107386380D01*
X97263238Y-107386380D01*
X97358476Y-107338761D01*
X97453714Y-107243523D01*
X97501333Y-107053047D01*
X97501333Y-106719714D01*
X97453714Y-106529238D01*
X97358476Y-106434000D01*
X97263238Y-106386380D01*
X96501333Y-106386380D02*
X95882285Y-106386380D01*
X96215619Y-106767333D01*
X96072761Y-106767333D01*
X95977523Y-106814952D01*
X95929904Y-106862571D01*
X95882285Y-106957809D01*
X95882285Y-107195904D01*
X95929904Y-107291142D01*
X95977523Y-107338761D01*
X96072761Y-107386380D01*
X96358476Y-107386380D01*
X96453714Y-107338761D01*
X96501333Y-107291142D01*
X94977523Y-106386380D02*
X95453714Y-106386380D01*
X95501333Y-106862571D01*
X95453714Y-106814952D01*
X95358476Y-106767333D01*
X95120380Y-106767333D01*
X95025142Y-106814952D01*
X94977523Y-106862571D01*
X94929904Y-106957809D01*
X94929904Y-107195904D01*
X94977523Y-107291142D01*
X95025142Y-107338761D01*
X95120380Y-107386380D01*
X95358476Y-107386380D01*
X95453714Y-107338761D01*
X95501333Y-107291142D01*
X83076476Y-102306380D02*
X83076476Y-101306380D01*
X82409809Y-101306380D02*
X82219333Y-101306380D01*
X82124095Y-101354000D01*
X82028857Y-101449238D01*
X81981238Y-101639714D01*
X81981238Y-101973047D01*
X82028857Y-102163523D01*
X82124095Y-102258761D01*
X82219333Y-102306380D01*
X82409809Y-102306380D01*
X82505047Y-102258761D01*
X82600285Y-102163523D01*
X82647904Y-101973047D01*
X82647904Y-101639714D01*
X82600285Y-101449238D01*
X82505047Y-101354000D01*
X82409809Y-101306380D01*
X81028857Y-102306380D02*
X81600285Y-102306380D01*
X81314571Y-102306380D02*
X81314571Y-101306380D01*
X81409809Y-101449238D01*
X81505047Y-101544476D01*
X81600285Y-101592095D01*
X80457428Y-101734952D02*
X80552666Y-101687333D01*
X80600285Y-101639714D01*
X80647904Y-101544476D01*
X80647904Y-101496857D01*
X80600285Y-101401619D01*
X80552666Y-101354000D01*
X80457428Y-101306380D01*
X80266952Y-101306380D01*
X80171714Y-101354000D01*
X80124095Y-101401619D01*
X80076476Y-101496857D01*
X80076476Y-101544476D01*
X80124095Y-101639714D01*
X80171714Y-101687333D01*
X80266952Y-101734952D01*
X80457428Y-101734952D01*
X80552666Y-101782571D01*
X80600285Y-101830190D01*
X80647904Y-101925428D01*
X80647904Y-102115904D01*
X80600285Y-102211142D01*
X80552666Y-102258761D01*
X80457428Y-102306380D01*
X80266952Y-102306380D01*
X80171714Y-102258761D01*
X80124095Y-102211142D01*
X80076476Y-102115904D01*
X80076476Y-101925428D01*
X80124095Y-101830190D01*
X80171714Y-101782571D01*
X80266952Y-101734952D01*
X98183904Y-99766380D02*
X98183904Y-98766380D01*
X97517238Y-98766380D02*
X97326761Y-98766380D01*
X97231523Y-98814000D01*
X97136285Y-98909238D01*
X97088666Y-99099714D01*
X97088666Y-99433047D01*
X97136285Y-99623523D01*
X97231523Y-99718761D01*
X97326761Y-99766380D01*
X97517238Y-99766380D01*
X97612476Y-99718761D01*
X97707714Y-99623523D01*
X97755333Y-99433047D01*
X97755333Y-99099714D01*
X97707714Y-98909238D01*
X97612476Y-98814000D01*
X97517238Y-98766380D01*
X96755333Y-98766380D02*
X96136285Y-98766380D01*
X96469619Y-99147333D01*
X96326761Y-99147333D01*
X96231523Y-99194952D01*
X96183904Y-99242571D01*
X96136285Y-99337809D01*
X96136285Y-99575904D01*
X96183904Y-99671142D01*
X96231523Y-99718761D01*
X96326761Y-99766380D01*
X96612476Y-99766380D01*
X96707714Y-99718761D01*
X96755333Y-99671142D01*
X95564857Y-99194952D02*
X95660095Y-99147333D01*
X95707714Y-99099714D01*
X95755333Y-99004476D01*
X95755333Y-98956857D01*
X95707714Y-98861619D01*
X95660095Y-98814000D01*
X95564857Y-98766380D01*
X95374380Y-98766380D01*
X95279142Y-98814000D01*
X95231523Y-98861619D01*
X95183904Y-98956857D01*
X95183904Y-99004476D01*
X95231523Y-99099714D01*
X95279142Y-99147333D01*
X95374380Y-99194952D01*
X95564857Y-99194952D01*
X95660095Y-99242571D01*
X95707714Y-99290190D01*
X95755333Y-99385428D01*
X95755333Y-99575904D01*
X95707714Y-99671142D01*
X95660095Y-99718761D01*
X95564857Y-99766380D01*
X95374380Y-99766380D01*
X95279142Y-99718761D01*
X95231523Y-99671142D01*
X95183904Y-99575904D01*
X95183904Y-99385428D01*
X95231523Y-99290190D01*
X95279142Y-99242571D01*
X95374380Y-99194952D01*
X97929904Y-115006380D02*
X97929904Y-114006380D01*
X97263238Y-114006380D02*
X97072761Y-114006380D01*
X96977523Y-114054000D01*
X96882285Y-114149238D01*
X96834666Y-114339714D01*
X96834666Y-114673047D01*
X96882285Y-114863523D01*
X96977523Y-114958761D01*
X97072761Y-115006380D01*
X97263238Y-115006380D01*
X97358476Y-114958761D01*
X97453714Y-114863523D01*
X97501333Y-114673047D01*
X97501333Y-114339714D01*
X97453714Y-114149238D01*
X97358476Y-114054000D01*
X97263238Y-114006380D01*
X95977523Y-114339714D02*
X95977523Y-115006380D01*
X96215619Y-113958761D02*
X96453714Y-114673047D01*
X95834666Y-114673047D01*
X95310857Y-114434952D02*
X95406095Y-114387333D01*
X95453714Y-114339714D01*
X95501333Y-114244476D01*
X95501333Y-114196857D01*
X95453714Y-114101619D01*
X95406095Y-114054000D01*
X95310857Y-114006380D01*
X95120380Y-114006380D01*
X95025142Y-114054000D01*
X94977523Y-114101619D01*
X94929904Y-114196857D01*
X94929904Y-114244476D01*
X94977523Y-114339714D01*
X95025142Y-114387333D01*
X95120380Y-114434952D01*
X95310857Y-114434952D01*
X95406095Y-114482571D01*
X95453714Y-114530190D01*
X95501333Y-114625428D01*
X95501333Y-114815904D01*
X95453714Y-114911142D01*
X95406095Y-114958761D01*
X95310857Y-115006380D01*
X95120380Y-115006380D01*
X95025142Y-114958761D01*
X94977523Y-114911142D01*
X94929904Y-114815904D01*
X94929904Y-114625428D01*
X94977523Y-114530190D01*
X95025142Y-114482571D01*
X95120380Y-114434952D01*
X83076476Y-99766380D02*
X83076476Y-98766380D01*
X82409809Y-98766380D02*
X82219333Y-98766380D01*
X82124095Y-98814000D01*
X82028857Y-98909238D01*
X81981238Y-99099714D01*
X81981238Y-99433047D01*
X82028857Y-99623523D01*
X82124095Y-99718761D01*
X82219333Y-99766380D01*
X82409809Y-99766380D01*
X82505047Y-99718761D01*
X82600285Y-99623523D01*
X82647904Y-99433047D01*
X82647904Y-99099714D01*
X82600285Y-98909238D01*
X82505047Y-98814000D01*
X82409809Y-98766380D01*
X81028857Y-99766380D02*
X81600285Y-99766380D01*
X81314571Y-99766380D02*
X81314571Y-98766380D01*
X81409809Y-98909238D01*
X81505047Y-99004476D01*
X81600285Y-99052095D01*
X80695523Y-98766380D02*
X80028857Y-98766380D01*
X80457428Y-99766380D01*
D13*
%TO.C,J3*%
X77530000Y-128330000D02*
X74870000Y-128330000D01*
X77530000Y-77470000D02*
X77530000Y-128330000D01*
X77530000Y-74870000D02*
X76200000Y-74870000D01*
X77530000Y-77470000D02*
X74870000Y-77470000D01*
X77530000Y-76200000D02*
X77530000Y-74870000D01*
X74870000Y-77470000D02*
X74870000Y-128330000D01*
%TO.C,J4*%
X102930000Y-74870000D02*
X101600000Y-74870000D01*
X100270000Y-77470000D02*
X100270000Y-128330000D01*
X102930000Y-77470000D02*
X102930000Y-128330000D01*
X102930000Y-128330000D02*
X100270000Y-128330000D01*
X102930000Y-77470000D02*
X100270000Y-77470000D01*
X102930000Y-76200000D02*
X102930000Y-74870000D01*
%TD*%
%LPC*%
D14*
%TO.C,J1*%
X97378000Y-122114000D03*
X91598000Y-122114000D03*
D15*
X98808000Y-121584000D03*
D16*
X90168000Y-125764000D03*
D15*
X90168000Y-121584000D03*
D16*
X98808000Y-125764000D03*
%TD*%
D17*
%TO.C,U3*%
X87143000Y-90716000D03*
X88543000Y-89316000D03*
X89243000Y-90016000D03*
X87143000Y-89316000D03*
X88543000Y-90716000D03*
X89243000Y-88616000D03*
X89243000Y-91416000D03*
X87843000Y-91416000D03*
X89943000Y-90716000D03*
X87843000Y-88616000D03*
X87843000Y-90016000D03*
X89943000Y-89316000D03*
%TD*%
D14*
%TO.C,J2*%
X80422000Y-122114000D03*
X86202000Y-122114000D03*
D15*
X78992000Y-121584000D03*
D16*
X87632000Y-125764000D03*
X78992000Y-125764000D03*
D15*
X87632000Y-121584000D03*
%TD*%
D18*
%TO.C,J3*%
X76200000Y-76200000D03*
D19*
X76200000Y-78740000D03*
X76200000Y-81280000D03*
X76200000Y-83820000D03*
X76200000Y-86360000D03*
X76200000Y-88900000D03*
X76200000Y-91440000D03*
X76200000Y-93980000D03*
X76200000Y-96520000D03*
X76200000Y-99060000D03*
X76200000Y-101600000D03*
X76200000Y-104140000D03*
X76200000Y-106680000D03*
X76200000Y-109220000D03*
X76200000Y-111760000D03*
X76200000Y-114300000D03*
X76200000Y-116840000D03*
X76200000Y-119380000D03*
X76200000Y-121920000D03*
X76200000Y-124460000D03*
X76200000Y-127000000D03*
%TD*%
D18*
%TO.C,J4*%
X101600000Y-76200000D03*
D19*
X101600000Y-78740000D03*
X101600000Y-81280000D03*
X101600000Y-83820000D03*
X101600000Y-86360000D03*
X101600000Y-88900000D03*
X101600000Y-91440000D03*
X101600000Y-93980000D03*
X101600000Y-96520000D03*
X101600000Y-99060000D03*
X101600000Y-101600000D03*
X101600000Y-104140000D03*
X101600000Y-106680000D03*
X101600000Y-109220000D03*
X101600000Y-111760000D03*
X101600000Y-114300000D03*
X101600000Y-116840000D03*
X101600000Y-119380000D03*
X101600000Y-121920000D03*
X101600000Y-124460000D03*
X101600000Y-127000000D03*
%TD*%
M02*
