M48
; DRILL file {KiCad (6.0.10)} date Sun Jan 22 23:50:18 2023
; FORMAT={-:-/ absolute / inch / decimal}
; #@! TF.CreationDate,2023-01-22T23:50:18+10:00
; #@! TF.GenerationSoftware,Kicad,Pcbnew,(6.0.10)
; #@! TF.FileFunction,Plated,1,4,PTH
FMAT,2
INCH
; #@! TA.AperFunction,Plated,PTH,ComponentDrill
T1C0.0079
; #@! TA.AperFunction,Plated,PTH,ViaDrill
T2C0.0118
; #@! TA.AperFunction,Plated,PTH,ViaDrill
T3C0.0157
; #@! TA.AperFunction,Plated,PTH,ComponentDrill
T4C0.0236
; #@! TA.AperFunction,Plated,PTH,ComponentDrill
T5C0.0394
%
G90
G05
T1
X3.4308Y-3.5164
X3.4308Y-3.5715
X3.4584Y-3.4888
X3.4584Y-3.5439
X3.4584Y-3.5991
X3.4859Y-3.5164
X3.4859Y-3.5715
X3.5135Y-3.4888
X3.5135Y-3.5439
X3.5135Y-3.5991
X3.5411Y-3.5164
X3.5411Y-3.5715
T2
X3.08Y-3.41
X3.1Y-4.05
X3.1Y-4.58
X3.11Y-4.4063
X3.13Y-3.12
X3.13Y-3.84
X3.14Y-4.4737
X3.18Y-4.05
X3.195Y-4.405
X3.2005Y-3.9705
X3.21Y-4.02
X3.25Y-4.228
X3.25Y-4.4537
X3.255Y-4.665
X3.26Y-3.24
X3.26Y-3.34
X3.26Y-3.39
X3.26Y-3.44
X3.26Y-3.49
X3.26Y-3.54
X3.26Y-3.59
X3.26Y-3.64
X3.26Y-3.69
X3.26Y-3.74
X3.26Y-3.79
X3.26Y-3.84
X3.27Y-4.01
X3.3Y-4.41
X3.32Y-4.01
X3.32Y-4.66
X3.35Y-4.11
X3.3576Y-4.2924
X3.36Y-4.44
X3.37Y-4.01
X3.3937Y-4.1794
X3.42Y-4.01
X3.4437Y-4.09
X3.4437Y-4.2363
X3.47Y-4.01
X3.4937Y-4.21
X3.52Y-4.01
X3.5437Y-4.4
X3.5463Y-4.26
X3.57Y-4.01
X3.5963Y-4.26
X3.62Y-4.01
X3.6437Y-4.26
X3.67Y-4.01
X3.6983Y-4.4183
X3.7Y-4.66
X3.72Y-4.01
X3.73Y-4.46
X3.76Y-4.66
X3.77Y-4.01
X3.78Y-3.44
X3.79Y-4.45
X3.82Y-4.01
X3.83Y-3.24
X3.83Y-3.29
X3.83Y-3.34
X3.83Y-3.39
X3.83Y-3.69
X3.83Y-3.74
X3.83Y-3.79
X3.83Y-3.84
X3.89Y-4.01
X3.9Y-4.56
T3
X3.2126Y-4.6752
X3.3642Y-4.6791
X3.6417Y-4.6811
X3.7972Y-4.6949
X3.8701Y-4.4193
T5
X3.0Y-3.0
X3.0Y-3.1
X3.0Y-3.2
X3.0Y-3.3
X3.0Y-3.4
X3.0Y-3.5
X3.0Y-3.6
X3.0Y-3.7
X3.0Y-3.8
X3.0Y-3.9
X3.0Y-4.0
X3.0Y-4.1
X3.0Y-4.2
X3.0Y-4.3
X3.0Y-4.4
X3.0Y-4.5
X3.0Y-4.6
X3.0Y-4.7
X3.0Y-4.8
X3.0Y-4.9
X3.0Y-5.0
X4.0Y-3.0
X4.0Y-3.1
X4.0Y-3.2
X4.0Y-3.3
X4.0Y-3.4
X4.0Y-3.5
X4.0Y-3.6
X4.0Y-3.7
X4.0Y-3.8
X4.0Y-3.9
X4.0Y-4.0
X4.0Y-4.1
X4.0Y-4.2
X4.0Y-4.3
X4.0Y-4.4
X4.0Y-4.5
X4.0Y-4.6
X4.0Y-4.7
X4.0Y-4.8
X4.0Y-4.9
X4.0Y-5.0
T4
G00X3.1099Y-4.7651
M15
G01X3.1099Y-4.8084
M16
G05
G00X3.1099Y-4.9395
M15
G01X3.1099Y-4.9631
M16
G05
G00X3.4501Y-4.7651
M15
G01X3.4501Y-4.8084
M16
G05
G00X3.4501Y-4.9395
M15
G01X3.4501Y-4.9631
M16
G05
G00X3.5499Y-4.7651
M15
G01X3.5499Y-4.8084
M16
G05
G00X3.5499Y-4.9395
M15
G01X3.5499Y-4.9631
M16
G05
G00X3.8901Y-4.7651
M15
G01X3.8901Y-4.8084
M16
G05
G00X3.8901Y-4.9395
M15
G01X3.8901Y-4.9631
M16
G05
T0
M30
