%TF.GenerationSoftware,KiCad,Pcbnew,(6.0.10)*%
%TF.CreationDate,2023-01-22T23:50:18+10:00*%
%TF.ProjectId,ESP32-S3-Breakout,45535033-322d-4533-932d-427265616b6f,rev?*%
%TF.SameCoordinates,Original*%
%TF.FileFunction,Soldermask,Top*%
%TF.FilePolarity,Negative*%
%FSLAX46Y46*%
G04 Gerber Fmt 4.6, Leading zero omitted, Abs format (unit mm)*
G04 Created by KiCad (PCBNEW (6.0.10)) date 2023-01-22 23:50:18*
%MOMM*%
%LPD*%
G01*
G04 APERTURE LIST*
G04 Aperture macros list*
%AMRoundRect*
0 Rectangle with rounded corners*
0 $1 Rounding radius*
0 $2 $3 $4 $5 $6 $7 $8 $9 X,Y pos of 4 corners*
0 Add a 4 corners polygon primitive as box body*
4,1,4,$2,$3,$4,$5,$6,$7,$8,$9,$2,$3,0*
0 Add four circle primitives for the rounded corners*
1,1,$1+$1,$2,$3*
1,1,$1+$1,$4,$5*
1,1,$1+$1,$6,$7*
1,1,$1+$1,$8,$9*
0 Add four rect primitives between the rounded corners*
20,1,$1+$1,$2,$3,$4,$5,0*
20,1,$1+$1,$4,$5,$6,$7,0*
20,1,$1+$1,$6,$7,$8,$9,0*
20,1,$1+$1,$8,$9,$2,$3,0*%
G04 Aperture macros list end*
%ADD10RoundRect,0.150000X-0.150000X0.512500X-0.150000X-0.512500X0.150000X-0.512500X0.150000X0.512500X0*%
%ADD11RoundRect,0.150000X0.150000X-0.512500X0.150000X0.512500X-0.150000X0.512500X-0.150000X-0.512500X0*%
%ADD12R,0.450000X0.600000*%
%ADD13RoundRect,0.225000X-0.250000X0.225000X-0.250000X-0.225000X0.250000X-0.225000X0.250000X0.225000X0*%
%ADD14RoundRect,0.225000X0.250000X-0.225000X0.250000X0.225000X-0.250000X0.225000X-0.250000X-0.225000X0*%
%ADD15RoundRect,0.150000X0.150000X-0.825000X0.150000X0.825000X-0.150000X0.825000X-0.150000X-0.825000X0*%
%ADD16RoundRect,0.200000X-0.275000X0.200000X-0.275000X-0.200000X0.275000X-0.200000X0.275000X0.200000X0*%
%ADD17C,0.650000*%
%ADD18R,0.600000X1.450000*%
%ADD19R,0.300000X1.450000*%
%ADD20O,1.000000X2.100000*%
%ADD21O,1.000000X1.600000*%
%ADD22RoundRect,0.200000X0.275000X-0.200000X0.275000X0.200000X-0.275000X0.200000X-0.275000X-0.200000X0*%
%ADD23R,1.500000X0.900000*%
%ADD24R,0.900000X1.500000*%
%ADD25C,0.500000*%
%ADD26R,3.900000X3.900000*%
%ADD27R,1.800000X1.000000*%
%ADD28R,1.700000X0.900000*%
%ADD29RoundRect,0.250000X-0.475000X0.250000X-0.475000X-0.250000X0.475000X-0.250000X0.475000X0.250000X0*%
%ADD30RoundRect,0.218750X0.256250X-0.218750X0.256250X0.218750X-0.256250X0.218750X-0.256250X-0.218750X0*%
%ADD31RoundRect,0.150000X0.150000X-0.587500X0.150000X0.587500X-0.150000X0.587500X-0.150000X-0.587500X0*%
%ADD32RoundRect,0.250000X-0.250000X-0.475000X0.250000X-0.475000X0.250000X0.475000X-0.250000X0.475000X0*%
%ADD33R,1.700000X1.700000*%
%ADD34O,1.700000X1.700000*%
G04 APERTURE END LIST*
D10*
%TO.C,U1*%
X84262000Y-114686500D03*
X83312000Y-114686500D03*
X82362000Y-114686500D03*
X82362000Y-116961500D03*
X83312000Y-116961500D03*
X84262000Y-116961500D03*
%TD*%
D11*
%TO.C,U5*%
X78806000Y-108579500D03*
X79756000Y-108579500D03*
X80706000Y-108579500D03*
X80706000Y-106304500D03*
X78806000Y-106304500D03*
%TD*%
D12*
%TO.C,D1*%
X97250000Y-116650000D03*
X97250000Y-118750000D03*
%TD*%
D10*
%TO.C,U2*%
X95438000Y-114686500D03*
X94488000Y-114686500D03*
X93538000Y-114686500D03*
X93538000Y-116961500D03*
X94488000Y-116961500D03*
X95438000Y-116961500D03*
%TD*%
D13*
%TO.C,C5*%
X82296000Y-109207000D03*
X82296000Y-110757000D03*
%TD*%
%TO.C,C4*%
X79502000Y-94729000D03*
X79502000Y-96279000D03*
%TD*%
D14*
%TO.C,C3*%
X79502000Y-82055000D03*
X79502000Y-80505000D03*
%TD*%
D12*
%TO.C,D2*%
X80550000Y-116700000D03*
X80550000Y-118800000D03*
%TD*%
D15*
%TO.C,U4*%
X90170000Y-109917000D03*
X91440000Y-109917000D03*
X92710000Y-109917000D03*
X93980000Y-109917000D03*
X95250000Y-109917000D03*
X96520000Y-109917000D03*
X97790000Y-109917000D03*
X99060000Y-109917000D03*
X99060000Y-104967000D03*
X97790000Y-104967000D03*
X96520000Y-104967000D03*
X95250000Y-104967000D03*
X93980000Y-104967000D03*
X92710000Y-104967000D03*
X91440000Y-104967000D03*
X90170000Y-104967000D03*
%TD*%
D16*
%TO.C,R7*%
X83820000Y-104077000D03*
X83820000Y-105727000D03*
%TD*%
D17*
%TO.C,J1*%
X97378000Y-122114000D03*
X91598000Y-122114000D03*
D18*
X91238000Y-120669000D03*
X92038000Y-120669000D03*
D19*
X93238000Y-120669000D03*
X94238000Y-120669000D03*
X94738000Y-120669000D03*
X95738000Y-120669000D03*
D18*
X96938000Y-120669000D03*
X97738000Y-120669000D03*
X97738000Y-120669000D03*
X96938000Y-120669000D03*
D19*
X96238000Y-120669000D03*
X95238000Y-120669000D03*
X93738000Y-120669000D03*
X92738000Y-120669000D03*
D18*
X92038000Y-120669000D03*
X91238000Y-120669000D03*
D20*
X98808000Y-121584000D03*
D21*
X90168000Y-125764000D03*
D20*
X90168000Y-121584000D03*
D21*
X98808000Y-125764000D03*
%TD*%
D22*
%TO.C,R3*%
X78740000Y-118681000D03*
X78740000Y-117031000D03*
%TD*%
D23*
%TO.C,U3*%
X81293000Y-82296000D03*
X81293000Y-83566000D03*
X81293000Y-84836000D03*
X81293000Y-86106000D03*
X81293000Y-87376000D03*
X81293000Y-88646000D03*
X81293000Y-89916000D03*
X81293000Y-91186000D03*
X81293000Y-92456000D03*
X81293000Y-93726000D03*
X81293000Y-94996000D03*
X81293000Y-96266000D03*
X81293000Y-97536000D03*
X81293000Y-98806000D03*
D24*
X83058000Y-100056000D03*
X84328000Y-100056000D03*
X85598000Y-100056000D03*
X86868000Y-100056000D03*
X88138000Y-100056000D03*
X89408000Y-100056000D03*
X90678000Y-100056000D03*
X91948000Y-100056000D03*
X93218000Y-100056000D03*
X94488000Y-100056000D03*
X95758000Y-100056000D03*
X97028000Y-100056000D03*
D23*
X98793000Y-98806000D03*
X98793000Y-97536000D03*
X98793000Y-96266000D03*
X98793000Y-94996000D03*
X98793000Y-93726000D03*
X98793000Y-92456000D03*
X98793000Y-91186000D03*
X98793000Y-89916000D03*
X98793000Y-88646000D03*
X98793000Y-87376000D03*
X98793000Y-86106000D03*
X98793000Y-84836000D03*
X98793000Y-83566000D03*
X98793000Y-82296000D03*
D25*
X87143000Y-90716000D03*
X88543000Y-89316000D03*
X89243000Y-90016000D03*
X87143000Y-89316000D03*
X88543000Y-90716000D03*
D26*
X88543000Y-90016000D03*
D25*
X89243000Y-88616000D03*
X89243000Y-91416000D03*
X87843000Y-91416000D03*
X89943000Y-90716000D03*
X87843000Y-88616000D03*
X87843000Y-90016000D03*
X89943000Y-89316000D03*
%TD*%
D27*
%TO.C,Y1*%
X79134000Y-93071000D03*
X79134000Y-90571000D03*
%TD*%
D16*
%TO.C,R4*%
X78740000Y-113983000D03*
X78740000Y-115633000D03*
%TD*%
D28*
%TO.C,SW2*%
X87122000Y-114251000D03*
X87122000Y-117651000D03*
%TD*%
D29*
%TO.C,C1*%
X79248000Y-83632000D03*
X79248000Y-85532000D03*
%TD*%
D28*
%TO.C,SW1*%
X90678000Y-114251000D03*
X90678000Y-117651000D03*
%TD*%
D30*
%TO.C,FB1*%
X97400000Y-115337500D03*
X97400000Y-113762500D03*
%TD*%
D16*
%TO.C,R1*%
X99060000Y-113475000D03*
X99060000Y-115125000D03*
%TD*%
%TO.C,R6*%
X83820000Y-109157000D03*
X83820000Y-110807000D03*
%TD*%
D14*
%TO.C,C7*%
X88646000Y-105804000D03*
X88646000Y-104254000D03*
%TD*%
%TO.C,C6*%
X88646000Y-110757000D03*
X88646000Y-109207000D03*
%TD*%
D31*
%TO.C,Q1*%
X85283000Y-106347500D03*
X87183000Y-106347500D03*
X86233000Y-104472500D03*
%TD*%
%TO.C,Q2*%
X85283000Y-110411500D03*
X87183000Y-110411500D03*
X86233000Y-108536500D03*
%TD*%
D13*
%TO.C,C2*%
X79502000Y-87363000D03*
X79502000Y-88913000D03*
%TD*%
D22*
%TO.C,R2*%
X99060000Y-118173000D03*
X99060000Y-116523000D03*
%TD*%
D32*
%TO.C,C9*%
X78806000Y-104394000D03*
X80706000Y-104394000D03*
%TD*%
%TO.C,C8*%
X78806000Y-110490000D03*
X80706000Y-110490000D03*
%TD*%
D16*
%TO.C,R5*%
X82296000Y-104077000D03*
X82296000Y-105727000D03*
%TD*%
D30*
%TO.C,FB2*%
X80750000Y-115387500D03*
X80750000Y-113812500D03*
%TD*%
D17*
%TO.C,J2*%
X80422000Y-122114000D03*
X86202000Y-122114000D03*
D18*
X80062000Y-120669000D03*
X80862000Y-120669000D03*
D19*
X82062000Y-120669000D03*
X83062000Y-120669000D03*
X83562000Y-120669000D03*
X84562000Y-120669000D03*
D18*
X85762000Y-120669000D03*
X86562000Y-120669000D03*
X86562000Y-120669000D03*
X85762000Y-120669000D03*
D19*
X85062000Y-120669000D03*
X84062000Y-120669000D03*
X82562000Y-120669000D03*
X81562000Y-120669000D03*
D18*
X80862000Y-120669000D03*
X80062000Y-120669000D03*
D20*
X78992000Y-121584000D03*
D21*
X87632000Y-125764000D03*
X78992000Y-125764000D03*
D20*
X87632000Y-121584000D03*
%TD*%
D33*
%TO.C,J3*%
X76200000Y-76200000D03*
D34*
X76200000Y-78740000D03*
X76200000Y-81280000D03*
X76200000Y-83820000D03*
X76200000Y-86360000D03*
X76200000Y-88900000D03*
X76200000Y-91440000D03*
X76200000Y-93980000D03*
X76200000Y-96520000D03*
X76200000Y-99060000D03*
X76200000Y-101600000D03*
X76200000Y-104140000D03*
X76200000Y-106680000D03*
X76200000Y-109220000D03*
X76200000Y-111760000D03*
X76200000Y-114300000D03*
X76200000Y-116840000D03*
X76200000Y-119380000D03*
X76200000Y-121920000D03*
X76200000Y-124460000D03*
X76200000Y-127000000D03*
%TD*%
D33*
%TO.C,J4*%
X101600000Y-76200000D03*
D34*
X101600000Y-78740000D03*
X101600000Y-81280000D03*
X101600000Y-83820000D03*
X101600000Y-86360000D03*
X101600000Y-88900000D03*
X101600000Y-91440000D03*
X101600000Y-93980000D03*
X101600000Y-96520000D03*
X101600000Y-99060000D03*
X101600000Y-101600000D03*
X101600000Y-104140000D03*
X101600000Y-106680000D03*
X101600000Y-109220000D03*
X101600000Y-111760000D03*
X101600000Y-114300000D03*
X101600000Y-116840000D03*
X101600000Y-119380000D03*
X101600000Y-121920000D03*
X101600000Y-124460000D03*
X101600000Y-127000000D03*
%TD*%
M02*
