%TF.GenerationSoftware,KiCad,Pcbnew,(6.0.10)*%
%TF.CreationDate,2023-01-22T23:50:17+10:00*%
%TF.ProjectId,ESP32-S3-Breakout,45535033-322d-4533-932d-427265616b6f,rev?*%
%TF.SameCoordinates,Original*%
%TF.FileFunction,Copper,L1,Top*%
%TF.FilePolarity,Positive*%
%FSLAX46Y46*%
G04 Gerber Fmt 4.6, Leading zero omitted, Abs format (unit mm)*
G04 Created by KiCad (PCBNEW (6.0.10)) date 2023-01-22 23:50:17*
%MOMM*%
%LPD*%
G01*
G04 APERTURE LIST*
G04 Aperture macros list*
%AMRoundRect*
0 Rectangle with rounded corners*
0 $1 Rounding radius*
0 $2 $3 $4 $5 $6 $7 $8 $9 X,Y pos of 4 corners*
0 Add a 4 corners polygon primitive as box body*
4,1,4,$2,$3,$4,$5,$6,$7,$8,$9,$2,$3,0*
0 Add four circle primitives for the rounded corners*
1,1,$1+$1,$2,$3*
1,1,$1+$1,$4,$5*
1,1,$1+$1,$6,$7*
1,1,$1+$1,$8,$9*
0 Add four rect primitives between the rounded corners*
20,1,$1+$1,$2,$3,$4,$5,0*
20,1,$1+$1,$4,$5,$6,$7,0*
20,1,$1+$1,$6,$7,$8,$9,0*
20,1,$1+$1,$8,$9,$2,$3,0*%
G04 Aperture macros list end*
%TA.AperFunction,SMDPad,CuDef*%
%ADD10RoundRect,0.150000X-0.150000X0.512500X-0.150000X-0.512500X0.150000X-0.512500X0.150000X0.512500X0*%
%TD*%
%TA.AperFunction,SMDPad,CuDef*%
%ADD11RoundRect,0.150000X0.150000X-0.512500X0.150000X0.512500X-0.150000X0.512500X-0.150000X-0.512500X0*%
%TD*%
%TA.AperFunction,SMDPad,CuDef*%
%ADD12R,0.450000X0.600000*%
%TD*%
%TA.AperFunction,SMDPad,CuDef*%
%ADD13RoundRect,0.225000X-0.250000X0.225000X-0.250000X-0.225000X0.250000X-0.225000X0.250000X0.225000X0*%
%TD*%
%TA.AperFunction,SMDPad,CuDef*%
%ADD14RoundRect,0.225000X0.250000X-0.225000X0.250000X0.225000X-0.250000X0.225000X-0.250000X-0.225000X0*%
%TD*%
%TA.AperFunction,SMDPad,CuDef*%
%ADD15RoundRect,0.150000X0.150000X-0.825000X0.150000X0.825000X-0.150000X0.825000X-0.150000X-0.825000X0*%
%TD*%
%TA.AperFunction,SMDPad,CuDef*%
%ADD16RoundRect,0.200000X-0.275000X0.200000X-0.275000X-0.200000X0.275000X-0.200000X0.275000X0.200000X0*%
%TD*%
%TA.AperFunction,SMDPad,CuDef*%
%ADD17R,0.600000X1.450000*%
%TD*%
%TA.AperFunction,SMDPad,CuDef*%
%ADD18R,0.300000X1.450000*%
%TD*%
%TA.AperFunction,ComponentPad*%
%ADD19O,1.000000X2.100000*%
%TD*%
%TA.AperFunction,ComponentPad*%
%ADD20O,1.000000X1.600000*%
%TD*%
%TA.AperFunction,SMDPad,CuDef*%
%ADD21RoundRect,0.200000X0.275000X-0.200000X0.275000X0.200000X-0.275000X0.200000X-0.275000X-0.200000X0*%
%TD*%
%TA.AperFunction,SMDPad,CuDef*%
%ADD22R,1.500000X0.900000*%
%TD*%
%TA.AperFunction,SMDPad,CuDef*%
%ADD23R,0.900000X1.500000*%
%TD*%
%TA.AperFunction,ComponentPad*%
%ADD24C,0.500000*%
%TD*%
%TA.AperFunction,SMDPad,CuDef*%
%ADD25R,3.900000X3.900000*%
%TD*%
%TA.AperFunction,SMDPad,CuDef*%
%ADD26R,1.800000X1.000000*%
%TD*%
%TA.AperFunction,SMDPad,CuDef*%
%ADD27R,1.700000X0.900000*%
%TD*%
%TA.AperFunction,SMDPad,CuDef*%
%ADD28RoundRect,0.250000X-0.475000X0.250000X-0.475000X-0.250000X0.475000X-0.250000X0.475000X0.250000X0*%
%TD*%
%TA.AperFunction,SMDPad,CuDef*%
%ADD29RoundRect,0.218750X0.256250X-0.218750X0.256250X0.218750X-0.256250X0.218750X-0.256250X-0.218750X0*%
%TD*%
%TA.AperFunction,SMDPad,CuDef*%
%ADD30RoundRect,0.150000X0.150000X-0.587500X0.150000X0.587500X-0.150000X0.587500X-0.150000X-0.587500X0*%
%TD*%
%TA.AperFunction,SMDPad,CuDef*%
%ADD31RoundRect,0.250000X-0.250000X-0.475000X0.250000X-0.475000X0.250000X0.475000X-0.250000X0.475000X0*%
%TD*%
%TA.AperFunction,ComponentPad*%
%ADD32R,1.700000X1.700000*%
%TD*%
%TA.AperFunction,ComponentPad*%
%ADD33O,1.700000X1.700000*%
%TD*%
%TA.AperFunction,ViaPad*%
%ADD34C,0.600000*%
%TD*%
%TA.AperFunction,ViaPad*%
%ADD35C,0.800000*%
%TD*%
%TA.AperFunction,Conductor*%
%ADD36C,0.203200*%
%TD*%
%TA.AperFunction,Conductor*%
%ADD37C,0.508000*%
%TD*%
G04 APERTURE END LIST*
D10*
%TO.P,U1,1,I/O1*%
%TO.N,/IO19*%
X84262000Y-114686500D03*
%TO.P,U1,2,GND*%
%TO.N,GND*%
X83312000Y-114686500D03*
%TO.P,U1,3,I/O2*%
%TO.N,/IO20*%
X82362000Y-114686500D03*
%TO.P,U1,4,I/O2*%
%TO.N,/USB_D+*%
X82362000Y-116961500D03*
%TO.P,U1,5,VBUS*%
%TO.N,/VBUS2*%
X83312000Y-116961500D03*
%TO.P,U1,6,I/O1*%
%TO.N,/USB_D-*%
X84262000Y-116961500D03*
%TD*%
D11*
%TO.P,U5,1,VIN*%
%TO.N,+5V*%
X78806000Y-108579500D03*
%TO.P,U5,2,GND*%
%TO.N,GND*%
X79756000Y-108579500D03*
%TO.P,U5,3,CE*%
%TO.N,+5V*%
X80706000Y-108579500D03*
%TO.P,U5,4,NC*%
%TO.N,unconnected-(U5-Pad4)*%
X80706000Y-106304500D03*
%TO.P,U5,5,VOUT*%
%TO.N,+3V3*%
X78806000Y-106304500D03*
%TD*%
D12*
%TO.P,D1,1,K*%
%TO.N,Net-(D1-Pad1)*%
X97250000Y-116650000D03*
%TO.P,D1,2,A*%
%TO.N,/VBUS1*%
X97250000Y-118750000D03*
%TD*%
D10*
%TO.P,U2,1,I/O1*%
%TO.N,/UART_D-*%
X95438000Y-114686500D03*
%TO.P,U2,2,GND*%
%TO.N,GND*%
X94488000Y-114686500D03*
%TO.P,U2,3,I/O2*%
%TO.N,/UART_D+*%
X93538000Y-114686500D03*
%TO.P,U2,4,I/O2*%
%TO.N,/USB_UART_D+*%
X93538000Y-116961500D03*
%TO.P,U2,5,VBUS*%
%TO.N,/VBUS1*%
X94488000Y-116961500D03*
%TO.P,U2,6,I/O1*%
%TO.N,/USB_UART_D-*%
X95438000Y-116961500D03*
%TD*%
D13*
%TO.P,C5,1*%
%TO.N,/EN*%
X82296000Y-109207000D03*
%TO.P,C5,2*%
%TO.N,GND*%
X82296000Y-110757000D03*
%TD*%
%TO.P,C4,1*%
%TO.N,/IO16*%
X79502000Y-94729000D03*
%TO.P,C4,2*%
%TO.N,GND*%
X79502000Y-96279000D03*
%TD*%
D14*
%TO.P,C3,1*%
%TO.N,+3V3*%
X79502000Y-82055000D03*
%TO.P,C3,2*%
%TO.N,GND*%
X79502000Y-80505000D03*
%TD*%
D12*
%TO.P,D2,1,K*%
%TO.N,Net-(D2-Pad1)*%
X80550000Y-116700000D03*
%TO.P,D2,2,A*%
%TO.N,/VBUS2*%
X80550000Y-118800000D03*
%TD*%
D15*
%TO.P,U4,1,GND*%
%TO.N,GND*%
X90170000Y-109917000D03*
%TO.P,U4,2,TXD*%
%TO.N,/RXD0*%
X91440000Y-109917000D03*
%TO.P,U4,3,RXD*%
%TO.N,/TXD0*%
X92710000Y-109917000D03*
%TO.P,U4,4,V3*%
%TO.N,+3V3*%
X93980000Y-109917000D03*
%TO.P,U4,5,UD+*%
%TO.N,/UART_D+*%
X95250000Y-109917000D03*
%TO.P,U4,6,UD-*%
%TO.N,/UART_D-*%
X96520000Y-109917000D03*
%TO.P,U4,7,NC*%
%TO.N,unconnected-(U4-Pad7)*%
X97790000Y-109917000D03*
%TO.P,U4,8,NC*%
%TO.N,unconnected-(U4-Pad8)*%
X99060000Y-109917000D03*
%TO.P,U4,9,~{CTS}*%
%TO.N,unconnected-(U4-Pad9)*%
X99060000Y-104967000D03*
%TO.P,U4,10,~{DSR}*%
%TO.N,unconnected-(U4-Pad10)*%
X97790000Y-104967000D03*
%TO.P,U4,11,~{RI}*%
%TO.N,unconnected-(U4-Pad11)*%
X96520000Y-104967000D03*
%TO.P,U4,12,~{DCD}*%
%TO.N,unconnected-(U4-Pad12)*%
X95250000Y-104967000D03*
%TO.P,U4,13,~{DTR}*%
%TO.N,/DTR*%
X93980000Y-104967000D03*
%TO.P,U4,14,~{RTS}*%
%TO.N,/RTS*%
X92710000Y-104967000D03*
%TO.P,U4,15,R232*%
%TO.N,unconnected-(U4-Pad15)*%
X91440000Y-104967000D03*
%TO.P,U4,16,VCC*%
%TO.N,+3V3*%
X90170000Y-104967000D03*
%TD*%
D16*
%TO.P,R7,1*%
%TO.N,/RTS*%
X83820000Y-104077000D03*
%TO.P,R7,2*%
%TO.N,Net-(Q2-Pad1)*%
X83820000Y-105727000D03*
%TD*%
D17*
%TO.P,J1,A1,GND*%
%TO.N,GND*%
X91238000Y-120669000D03*
%TO.P,J1,A4,VBUS*%
%TO.N,/VBUS1*%
X92038000Y-120669000D03*
D18*
%TO.P,J1,A5,CC1*%
%TO.N,/CC1_1*%
X93238000Y-120669000D03*
%TO.P,J1,A6,D+*%
%TO.N,/USB_UART_D+*%
X94238000Y-120669000D03*
%TO.P,J1,A7,D-*%
%TO.N,/USB_UART_D-*%
X94738000Y-120669000D03*
%TO.P,J1,A8,SBU1*%
%TO.N,unconnected-(J1-PadA8)*%
X95738000Y-120669000D03*
D17*
%TO.P,J1,A9,VBUS*%
%TO.N,/VBUS1*%
X96938000Y-120669000D03*
%TO.P,J1,A12,GND*%
%TO.N,GND*%
X97738000Y-120669000D03*
%TO.P,J1,B1,GND*%
X97738000Y-120669000D03*
%TO.P,J1,B4,VBUS*%
%TO.N,/VBUS1*%
X96938000Y-120669000D03*
D18*
%TO.P,J1,B5,CC2*%
%TO.N,/CC2_1*%
X96238000Y-120669000D03*
%TO.P,J1,B6,D+*%
%TO.N,/USB_UART_D+*%
X95238000Y-120669000D03*
%TO.P,J1,B7,D-*%
%TO.N,/USB_UART_D-*%
X93738000Y-120669000D03*
%TO.P,J1,B8,SBU2*%
%TO.N,unconnected-(J1-PadB8)*%
X92738000Y-120669000D03*
D17*
%TO.P,J1,B9,VBUS*%
%TO.N,/VBUS1*%
X92038000Y-120669000D03*
%TO.P,J1,B12,GND*%
%TO.N,GND*%
X91238000Y-120669000D03*
D19*
%TO.P,J1,S1,SHIELD*%
X98808000Y-121584000D03*
D20*
X90168000Y-125764000D03*
D19*
X90168000Y-121584000D03*
D20*
X98808000Y-125764000D03*
%TD*%
D21*
%TO.P,R3,1*%
%TO.N,/CC1_2*%
X78740000Y-118681000D03*
%TO.P,R3,2*%
%TO.N,GND*%
X78740000Y-117031000D03*
%TD*%
D22*
%TO.P,U3,1,GND*%
%TO.N,GND*%
X81293000Y-82296000D03*
%TO.P,U3,2,3V3*%
%TO.N,+3V3*%
X81293000Y-83566000D03*
%TO.P,U3,3,EN*%
%TO.N,/EN*%
X81293000Y-84836000D03*
%TO.P,U3,4,IO4*%
%TO.N,/IO4*%
X81293000Y-86106000D03*
%TO.P,U3,5,IO5*%
%TO.N,/IO5*%
X81293000Y-87376000D03*
%TO.P,U3,6,IO6*%
%TO.N,/IO6*%
X81293000Y-88646000D03*
%TO.P,U3,7,IO7*%
%TO.N,/IO7*%
X81293000Y-89916000D03*
%TO.P,U3,8,IO15*%
%TO.N,/IO15*%
X81293000Y-91186000D03*
%TO.P,U3,9,IO16*%
%TO.N,/IO16*%
X81293000Y-92456000D03*
%TO.P,U3,10,IO17*%
%TO.N,/IO17*%
X81293000Y-93726000D03*
%TO.P,U3,11,IO18*%
%TO.N,/IO18*%
X81293000Y-94996000D03*
%TO.P,U3,12,IO8*%
%TO.N,/IO8*%
X81293000Y-96266000D03*
%TO.P,U3,13,IO19*%
%TO.N,/IO19*%
X81293000Y-97536000D03*
%TO.P,U3,14,IO20*%
%TO.N,/IO20*%
X81293000Y-98806000D03*
D23*
%TO.P,U3,15,IO3*%
%TO.N,/IO3*%
X83058000Y-100056000D03*
%TO.P,U3,16,IO46*%
%TO.N,/IO46*%
X84328000Y-100056000D03*
%TO.P,U3,17,IO9*%
%TO.N,/IO9*%
X85598000Y-100056000D03*
%TO.P,U3,18,IO10*%
%TO.N,/IO10*%
X86868000Y-100056000D03*
%TO.P,U3,19,IO11*%
%TO.N,/IO11*%
X88138000Y-100056000D03*
%TO.P,U3,20,IO12*%
%TO.N,/IO12*%
X89408000Y-100056000D03*
%TO.P,U3,21,IO13*%
%TO.N,/IO13*%
X90678000Y-100056000D03*
%TO.P,U3,22,IO14*%
%TO.N,/IO14*%
X91948000Y-100056000D03*
%TO.P,U3,23,IO21*%
%TO.N,/IO21*%
X93218000Y-100056000D03*
%TO.P,U3,24,IO47*%
%TO.N,/IO47*%
X94488000Y-100056000D03*
%TO.P,U3,25,IO48*%
%TO.N,/IO48*%
X95758000Y-100056000D03*
%TO.P,U3,26,IO45*%
%TO.N,/IO45*%
X97028000Y-100056000D03*
D22*
%TO.P,U3,27,IO0*%
%TO.N,/IO0*%
X98793000Y-98806000D03*
%TO.P,U3,28,IO35*%
%TO.N,/IO35*%
X98793000Y-97536000D03*
%TO.P,U3,29,IO36*%
%TO.N,/IO36*%
X98793000Y-96266000D03*
%TO.P,U3,30,IO37*%
%TO.N,/IO37*%
X98793000Y-94996000D03*
%TO.P,U3,31,IO38*%
%TO.N,/IO38*%
X98793000Y-93726000D03*
%TO.P,U3,32,IO39*%
%TO.N,/IO39*%
X98793000Y-92456000D03*
%TO.P,U3,33,IO40*%
%TO.N,/IO40*%
X98793000Y-91186000D03*
%TO.P,U3,34,IO41*%
%TO.N,/IO41*%
X98793000Y-89916000D03*
%TO.P,U3,35,IO42*%
%TO.N,/IO42*%
X98793000Y-88646000D03*
%TO.P,U3,36,RXD0*%
%TO.N,/RXD0*%
X98793000Y-87376000D03*
%TO.P,U3,37,TXD0*%
%TO.N,/TXD0*%
X98793000Y-86106000D03*
%TO.P,U3,38,IO2*%
%TO.N,/IO2*%
X98793000Y-84836000D03*
%TO.P,U3,39,IO1*%
%TO.N,/IO1*%
X98793000Y-83566000D03*
%TO.P,U3,40,GND*%
%TO.N,GND*%
X98793000Y-82296000D03*
D24*
%TO.P,U3,41,EPAD*%
X87143000Y-90716000D03*
X88543000Y-89316000D03*
X89243000Y-90016000D03*
X87143000Y-89316000D03*
X88543000Y-90716000D03*
D25*
X88543000Y-90016000D03*
D24*
X89243000Y-88616000D03*
X89243000Y-91416000D03*
X87843000Y-91416000D03*
X89943000Y-90716000D03*
X87843000Y-88616000D03*
X87843000Y-90016000D03*
X89943000Y-89316000D03*
%TD*%
D26*
%TO.P,Y1,1,1*%
%TO.N,/IO16*%
X79134000Y-93071000D03*
%TO.P,Y1,2,2*%
%TO.N,/IO15*%
X79134000Y-90571000D03*
%TD*%
D16*
%TO.P,R4,1*%
%TO.N,/CC2_2*%
X78740000Y-113983000D03*
%TO.P,R4,2*%
%TO.N,GND*%
X78740000Y-115633000D03*
%TD*%
D27*
%TO.P,SW2,1,1*%
%TO.N,/EN*%
X87122000Y-114251000D03*
%TO.P,SW2,2,2*%
%TO.N,GND*%
X87122000Y-117651000D03*
%TD*%
D28*
%TO.P,C1,1*%
%TO.N,+3V3*%
X79248000Y-83632000D03*
%TO.P,C1,2*%
%TO.N,GND*%
X79248000Y-85532000D03*
%TD*%
D27*
%TO.P,SW1,1,1*%
%TO.N,/IO0*%
X90678000Y-114251000D03*
%TO.P,SW1,2,2*%
%TO.N,GND*%
X90678000Y-117651000D03*
%TD*%
D29*
%TO.P,FB1,1*%
%TO.N,Net-(D1-Pad1)*%
X97400000Y-115337500D03*
%TO.P,FB1,2*%
%TO.N,+5V*%
X97400000Y-113762500D03*
%TD*%
D16*
%TO.P,R1,1*%
%TO.N,/CC1_1*%
X99060000Y-113475000D03*
%TO.P,R1,2*%
%TO.N,GND*%
X99060000Y-115125000D03*
%TD*%
%TO.P,R6,1*%
%TO.N,/DTR*%
X83820000Y-109157000D03*
%TO.P,R6,2*%
%TO.N,Net-(Q1-Pad1)*%
X83820000Y-110807000D03*
%TD*%
D14*
%TO.P,C7,1*%
%TO.N,+3V3*%
X88646000Y-105804000D03*
%TO.P,C7,2*%
%TO.N,GND*%
X88646000Y-104254000D03*
%TD*%
%TO.P,C6,1*%
%TO.N,+3V3*%
X88646000Y-110757000D03*
%TO.P,C6,2*%
%TO.N,GND*%
X88646000Y-109207000D03*
%TD*%
D30*
%TO.P,Q1,1,B*%
%TO.N,Net-(Q1-Pad1)*%
X85283000Y-106347500D03*
%TO.P,Q1,2,C*%
%TO.N,/EN*%
X87183000Y-106347500D03*
%TO.P,Q1,3,E*%
%TO.N,/RTS*%
X86233000Y-104472500D03*
%TD*%
%TO.P,Q2,1,B*%
%TO.N,Net-(Q2-Pad1)*%
X85283000Y-110411500D03*
%TO.P,Q2,2,C*%
%TO.N,/IO0*%
X87183000Y-110411500D03*
%TO.P,Q2,3,E*%
%TO.N,/DTR*%
X86233000Y-108536500D03*
%TD*%
D13*
%TO.P,C2,1*%
%TO.N,GND*%
X79502000Y-87363000D03*
%TO.P,C2,2*%
%TO.N,/IO15*%
X79502000Y-88913000D03*
%TD*%
D21*
%TO.P,R2,1*%
%TO.N,/CC2_1*%
X99060000Y-118173000D03*
%TO.P,R2,2*%
%TO.N,GND*%
X99060000Y-116523000D03*
%TD*%
D31*
%TO.P,C9,1*%
%TO.N,+3V3*%
X78806000Y-104394000D03*
%TO.P,C9,2*%
%TO.N,GND*%
X80706000Y-104394000D03*
%TD*%
%TO.P,C8,1*%
%TO.N,+5V*%
X78806000Y-110490000D03*
%TO.P,C8,2*%
%TO.N,GND*%
X80706000Y-110490000D03*
%TD*%
D16*
%TO.P,R5,1*%
%TO.N,+3V3*%
X82296000Y-104077000D03*
%TO.P,R5,2*%
%TO.N,/EN*%
X82296000Y-105727000D03*
%TD*%
D29*
%TO.P,FB2,1*%
%TO.N,Net-(D2-Pad1)*%
X80750000Y-115387500D03*
%TO.P,FB2,2*%
%TO.N,+5V*%
X80750000Y-113812500D03*
%TD*%
D17*
%TO.P,J2,A1,GND*%
%TO.N,GND*%
X80062000Y-120669000D03*
%TO.P,J2,A4,VBUS*%
%TO.N,/VBUS2*%
X80862000Y-120669000D03*
D18*
%TO.P,J2,A5,CC1*%
%TO.N,/CC1_2*%
X82062000Y-120669000D03*
%TO.P,J2,A6,D+*%
%TO.N,/USB_D+*%
X83062000Y-120669000D03*
%TO.P,J2,A7,D-*%
%TO.N,/USB_D-*%
X83562000Y-120669000D03*
%TO.P,J2,A8,SBU1*%
%TO.N,unconnected-(J2-PadA8)*%
X84562000Y-120669000D03*
D17*
%TO.P,J2,A9,VBUS*%
%TO.N,/VBUS2*%
X85762000Y-120669000D03*
%TO.P,J2,A12,GND*%
%TO.N,GND*%
X86562000Y-120669000D03*
%TO.P,J2,B1,GND*%
X86562000Y-120669000D03*
%TO.P,J2,B4,VBUS*%
%TO.N,/VBUS2*%
X85762000Y-120669000D03*
D18*
%TO.P,J2,B5,CC2*%
%TO.N,/CC2_2*%
X85062000Y-120669000D03*
%TO.P,J2,B6,D+*%
%TO.N,/USB_D+*%
X84062000Y-120669000D03*
%TO.P,J2,B7,D-*%
%TO.N,/USB_D-*%
X82562000Y-120669000D03*
%TO.P,J2,B8,SBU2*%
%TO.N,unconnected-(J2-PadB8)*%
X81562000Y-120669000D03*
D17*
%TO.P,J2,B9,VBUS*%
%TO.N,/VBUS2*%
X80862000Y-120669000D03*
%TO.P,J2,B12,GND*%
%TO.N,GND*%
X80062000Y-120669000D03*
D19*
%TO.P,J2,S1,SHIELD*%
X78992000Y-121584000D03*
D20*
X87632000Y-125764000D03*
X78992000Y-125764000D03*
D19*
X87632000Y-121584000D03*
%TD*%
D32*
%TO.P,J3,1,Pin_1*%
%TO.N,GND*%
X76200000Y-76200000D03*
D33*
%TO.P,J3,2,Pin_2*%
%TO.N,+3V3*%
X76200000Y-78740000D03*
%TO.P,J3,3,Pin_3*%
%TO.N,/EN*%
X76200000Y-81280000D03*
%TO.P,J3,4,Pin_4*%
%TO.N,/IO4*%
X76200000Y-83820000D03*
%TO.P,J3,5,Pin_5*%
%TO.N,/IO5*%
X76200000Y-86360000D03*
%TO.P,J3,6,Pin_6*%
%TO.N,/IO6*%
X76200000Y-88900000D03*
%TO.P,J3,7,Pin_7*%
%TO.N,/IO7*%
X76200000Y-91440000D03*
%TO.P,J3,8,Pin_8*%
%TO.N,/IO15*%
X76200000Y-93980000D03*
%TO.P,J3,9,Pin_9*%
%TO.N,/IO16*%
X76200000Y-96520000D03*
%TO.P,J3,10,Pin_10*%
%TO.N,/IO17*%
X76200000Y-99060000D03*
%TO.P,J3,11,Pin_11*%
%TO.N,/IO18*%
X76200000Y-101600000D03*
%TO.P,J3,12,Pin_12*%
%TO.N,/IO8*%
X76200000Y-104140000D03*
%TO.P,J3,13,Pin_13*%
%TO.N,/IO19*%
X76200000Y-106680000D03*
%TO.P,J3,14,Pin_14*%
%TO.N,/IO20*%
X76200000Y-109220000D03*
%TO.P,J3,15,Pin_15*%
%TO.N,/IO3*%
X76200000Y-111760000D03*
%TO.P,J3,16,Pin_16*%
%TO.N,/IO46*%
X76200000Y-114300000D03*
%TO.P,J3,17,Pin_17*%
%TO.N,/IO9*%
X76200000Y-116840000D03*
%TO.P,J3,18,Pin_18*%
%TO.N,/IO10*%
X76200000Y-119380000D03*
%TO.P,J3,19,Pin_19*%
%TO.N,/IO11*%
X76200000Y-121920000D03*
%TO.P,J3,20,Pin_20*%
%TO.N,/IO12*%
X76200000Y-124460000D03*
%TO.P,J3,21,Pin_21*%
%TO.N,+5V*%
X76200000Y-127000000D03*
%TD*%
D32*
%TO.P,J4,1,Pin_1*%
%TO.N,GND*%
X101600000Y-76200000D03*
D33*
%TO.P,J4,2,Pin_2*%
%TO.N,/IO1*%
X101600000Y-78740000D03*
%TO.P,J4,3,Pin_3*%
%TO.N,/IO2*%
X101600000Y-81280000D03*
%TO.P,J4,4,Pin_4*%
%TO.N,/TXD0*%
X101600000Y-83820000D03*
%TO.P,J4,5,Pin_5*%
%TO.N,/RXD0*%
X101600000Y-86360000D03*
%TO.P,J4,6,Pin_6*%
%TO.N,/IO42*%
X101600000Y-88900000D03*
%TO.P,J4,7,Pin_7*%
%TO.N,/IO41*%
X101600000Y-91440000D03*
%TO.P,J4,8,Pin_8*%
%TO.N,/IO40*%
X101600000Y-93980000D03*
%TO.P,J4,9,Pin_9*%
%TO.N,/IO39*%
X101600000Y-96520000D03*
%TO.P,J4,10,Pin_10*%
%TO.N,/IO38*%
X101600000Y-99060000D03*
%TO.P,J4,11,Pin_11*%
%TO.N,/IO37*%
X101600000Y-101600000D03*
%TO.P,J4,12,Pin_12*%
%TO.N,/IO36*%
X101600000Y-104140000D03*
%TO.P,J4,13,Pin_13*%
%TO.N,/IO35*%
X101600000Y-106680000D03*
%TO.P,J4,14,Pin_14*%
%TO.N,/IO0*%
X101600000Y-109220000D03*
%TO.P,J4,15,Pin_15*%
%TO.N,/IO45*%
X101600000Y-111760000D03*
%TO.P,J4,16,Pin_16*%
%TO.N,/IO48*%
X101600000Y-114300000D03*
%TO.P,J4,17,Pin_17*%
%TO.N,/IO47*%
X101600000Y-116840000D03*
%TO.P,J4,18,Pin_18*%
%TO.N,/IO21*%
X101600000Y-119380000D03*
%TO.P,J4,19,Pin_19*%
%TO.N,/IO14*%
X101600000Y-121920000D03*
%TO.P,J4,20,Pin_20*%
%TO.N,/IO13*%
X101600000Y-124460000D03*
%TO.P,J4,21,Pin_21*%
%TO.N,+5V*%
X101600000Y-127000000D03*
%TD*%
D34*
%TO.N,+3V3*%
X81534000Y-102108000D03*
X88739100Y-106934000D03*
X90009100Y-111760000D03*
X78740000Y-102870000D03*
%TO.N,GND*%
X90076900Y-108204000D03*
X79502000Y-79248000D03*
X94742000Y-113284000D03*
X79502000Y-97536000D03*
X78740000Y-116332000D03*
X99060000Y-115824000D03*
X80772000Y-102870000D03*
X87469100Y-103886000D03*
X82550000Y-113123100D03*
X78232000Y-86614000D03*
X82804000Y-82296000D03*
X81153000Y-111887000D03*
X97282000Y-82296000D03*
%TO.N,/IO15*%
X82804000Y-91186000D03*
%TO.N,/IO16*%
X82804000Y-92456000D03*
%TO.N,/EN*%
X87469100Y-107602900D03*
X82550000Y-107391200D03*
X82804000Y-84836000D03*
X85344000Y-112776000D03*
D35*
%TO.N,+5V*%
X98300000Y-112251100D03*
D34*
X79756000Y-113631100D03*
X78994000Y-111920900D03*
%TO.N,/USB_UART_D+*%
X95504000Y-118364000D03*
X93980000Y-118364000D03*
%TO.N,/IO20*%
X81293000Y-100851000D03*
%TO.N,/IO19*%
X82804000Y-97536000D03*
%TO.N,Net-(Q1-Pad1)*%
X83820000Y-112014000D03*
X86199100Y-106157179D03*
%TO.N,Net-(Q2-Pad1)*%
X85090000Y-104394000D03*
X85283000Y-109027000D03*
%TO.N,/IO0*%
X93935958Y-112223958D03*
X98806000Y-101854000D03*
X96266000Y-113030000D03*
%TO.N,/IO4*%
X82804000Y-86106000D03*
%TO.N,/IO5*%
X82804000Y-87376000D03*
%TO.N,/IO6*%
X82804000Y-88646000D03*
%TO.N,/IO7*%
X82804000Y-89916000D03*
%TO.N,/IO17*%
X82804000Y-93726000D03*
%TO.N,/IO18*%
X82804000Y-94996000D03*
%TO.N,/IO8*%
X82804000Y-96266000D03*
%TO.N,/IO3*%
X83058000Y-101854000D03*
%TO.N,/IO46*%
X84328000Y-101854000D03*
%TO.N,/IO9*%
X85598000Y-101854000D03*
%TO.N,/IO10*%
X86868000Y-101854000D03*
%TO.N,/IO11*%
X88138000Y-101854000D03*
%TO.N,/IO12*%
X89408000Y-101854000D03*
%TO.N,/IO13*%
X90678000Y-101854000D03*
%TO.N,/IO14*%
X91948000Y-101854000D03*
%TO.N,/IO21*%
X93218000Y-101854000D03*
%TO.N,/IO47*%
X94488000Y-101854000D03*
%TO.N,/IO48*%
X95758000Y-101854000D03*
%TO.N,/IO45*%
X97028000Y-101854000D03*
%TO.N,/IO35*%
X97282000Y-97536000D03*
%TO.N,/IO36*%
X97282000Y-96266000D03*
%TO.N,/IO37*%
X97282000Y-94996000D03*
%TO.N,/IO38*%
X97282000Y-93726000D03*
%TO.N,/RXD0*%
X96012000Y-87376000D03*
X91346900Y-108204000D03*
%TO.N,/TXD0*%
X92549100Y-108204000D03*
X97282000Y-86106000D03*
%TO.N,/IO2*%
X97282000Y-84836000D03*
%TO.N,/IO1*%
X97282000Y-83566000D03*
%TO.N,/USB_D+*%
X82677000Y-118491000D03*
X84328000Y-118364000D03*
D35*
%TO.N,/VBUS1*%
X96450000Y-119250000D03*
X92500000Y-118900000D03*
%TO.N,/VBUS2*%
X85450000Y-118850000D03*
X81600000Y-118750000D03*
%TD*%
D36*
%TO.N,+3V3*%
X88646000Y-105804000D02*
X88760000Y-105804000D01*
X89649000Y-111760000D02*
X88646000Y-110757000D01*
X88760000Y-105804000D02*
X89597000Y-104967000D01*
D37*
X78806000Y-106304500D02*
X78806000Y-104394000D01*
D36*
X88646000Y-106840900D02*
X88739100Y-106934000D01*
D37*
X78806000Y-102936000D02*
X78740000Y-102870000D01*
D36*
X82296000Y-102870000D02*
X82296000Y-104077000D01*
D37*
X78806000Y-104394000D02*
X78806000Y-102936000D01*
D36*
X93472000Y-111760000D02*
X90009100Y-111760000D01*
X81534000Y-102108000D02*
X82296000Y-102870000D01*
X89597000Y-104967000D02*
X90170000Y-104967000D01*
X93980000Y-109917000D02*
X93980000Y-111252000D01*
X93980000Y-111252000D02*
X93472000Y-111760000D01*
X90009100Y-111760000D02*
X89649000Y-111760000D01*
X88646000Y-105804000D02*
X88646000Y-106840900D01*
%TO.N,GND*%
X87122000Y-118364000D02*
X86562000Y-118924000D01*
D37*
X80706000Y-111440000D02*
X80706000Y-110490000D01*
X98020385Y-121584000D02*
X98808000Y-121584000D01*
D36*
X90170000Y-108297100D02*
X90076900Y-108204000D01*
D37*
X86562000Y-121301615D02*
X86844385Y-121584000D01*
D36*
X87837100Y-104254000D02*
X87469100Y-103886000D01*
D37*
X97738000Y-120669000D02*
X97738000Y-121301615D01*
D36*
X88646000Y-109207000D02*
X88659000Y-109207000D01*
D37*
X81153000Y-111887000D02*
X80706000Y-111440000D01*
D36*
X79756000Y-109474000D02*
X80706000Y-110424000D01*
D37*
X97738000Y-121301615D02*
X98020385Y-121584000D01*
D36*
X91238000Y-118924000D02*
X91238000Y-120669000D01*
D37*
X80062000Y-121301615D02*
X79779615Y-121584000D01*
X79502000Y-87363000D02*
X78981000Y-87363000D01*
D36*
X94488000Y-113538000D02*
X94742000Y-113284000D01*
X99060000Y-115824000D02*
X99060000Y-115125000D01*
X83312000Y-113885100D02*
X83312000Y-114686500D01*
X80706000Y-110424000D02*
X80706000Y-110490000D01*
D37*
X80706000Y-104394000D02*
X80706000Y-102936000D01*
D36*
X88646000Y-104254000D02*
X87837100Y-104254000D01*
X82283000Y-110757000D02*
X82296000Y-110757000D01*
D37*
X80706000Y-102936000D02*
X80772000Y-102870000D01*
D36*
X81153000Y-111887000D02*
X82283000Y-110757000D01*
D37*
X78981000Y-87363000D02*
X78232000Y-86614000D01*
X90955615Y-121584000D02*
X90168000Y-121584000D01*
X98793000Y-82296000D02*
X97282000Y-82296000D01*
D36*
X82550000Y-113123100D02*
X83312000Y-113885100D01*
X86562000Y-118924000D02*
X86562000Y-120669000D01*
D37*
X80062000Y-120669000D02*
X80062000Y-121301615D01*
D36*
X99060000Y-116523000D02*
X99060000Y-115125000D01*
D37*
X86562000Y-120669000D02*
X86562000Y-121301615D01*
X79248000Y-85532000D02*
X79248000Y-85598000D01*
D36*
X88659000Y-109207000D02*
X89662000Y-108204000D01*
D37*
X81293000Y-82296000D02*
X82804000Y-82296000D01*
D36*
X90678000Y-117651000D02*
X90678000Y-118364000D01*
D37*
X79779615Y-121584000D02*
X78992000Y-121584000D01*
D36*
X94488000Y-114686500D02*
X94488000Y-113538000D01*
X90170000Y-109917000D02*
X90170000Y-108297100D01*
D37*
X86844385Y-121584000D02*
X87632000Y-121584000D01*
X91238000Y-121301615D02*
X90955615Y-121584000D01*
D36*
X79756000Y-108579500D02*
X79756000Y-109474000D01*
D37*
X79248000Y-85598000D02*
X78232000Y-86614000D01*
X91238000Y-120669000D02*
X91238000Y-121301615D01*
X79502000Y-80505000D02*
X79502000Y-79248000D01*
D36*
X89662000Y-108204000D02*
X90076900Y-108204000D01*
X87122000Y-117651000D02*
X87122000Y-118364000D01*
X90678000Y-118364000D02*
X91238000Y-118924000D01*
D37*
X79502000Y-96279000D02*
X79502000Y-97536000D01*
D36*
X78740000Y-117031000D02*
X78740000Y-115633000D01*
X78740000Y-116332000D02*
X78740000Y-115633000D01*
D37*
%TO.N,/IO15*%
X79622000Y-91059000D02*
X79134000Y-90571000D01*
X81166000Y-91059000D02*
X79622000Y-91059000D01*
X79502000Y-90203000D02*
X79134000Y-90571000D01*
X81293000Y-91186000D02*
X81166000Y-91059000D01*
X79502000Y-88913000D02*
X79502000Y-90203000D01*
D36*
X81293000Y-91186000D02*
X82804000Y-91186000D01*
D37*
%TO.N,/IO16*%
X81166000Y-92583000D02*
X79622000Y-92583000D01*
X79502000Y-93439000D02*
X79134000Y-93071000D01*
D36*
X81293000Y-92456000D02*
X82804000Y-92456000D01*
D37*
X79622000Y-92583000D02*
X79134000Y-93071000D01*
X81293000Y-92456000D02*
X81166000Y-92583000D01*
X79502000Y-94729000D02*
X79502000Y-93439000D01*
D36*
%TO.N,/EN*%
X87376000Y-106540500D02*
X87183000Y-106347500D01*
X87257400Y-107391200D02*
X82550000Y-107391200D01*
X86614000Y-112776000D02*
X85344000Y-112776000D01*
X87376000Y-107509800D02*
X87376000Y-106540500D01*
X81293000Y-84836000D02*
X82804000Y-84836000D01*
X82550000Y-107391200D02*
X82296000Y-107645200D01*
X87469100Y-107602900D02*
X87257400Y-107391200D01*
X87122000Y-114251000D02*
X87122000Y-113284000D01*
X82550000Y-107391200D02*
X82296000Y-107137200D01*
X87122000Y-113284000D02*
X86614000Y-112776000D01*
X87469100Y-107602900D02*
X87376000Y-107509800D01*
X82296000Y-107137200D02*
X82296000Y-105727000D01*
X82296000Y-107645200D02*
X82296000Y-109207000D01*
%TO.N,+5V*%
X80391000Y-107442000D02*
X79121000Y-107442000D01*
D37*
X79937400Y-113812500D02*
X79756000Y-113631100D01*
D36*
X80706000Y-108579500D02*
X80706000Y-107757000D01*
X78806000Y-107757000D02*
X78806000Y-108579500D01*
D37*
X78994000Y-110678000D02*
X78806000Y-110490000D01*
X78994000Y-111920900D02*
X78994000Y-110678000D01*
X78806000Y-110490000D02*
X78806000Y-108579500D01*
X97400000Y-113762500D02*
X97400000Y-113151100D01*
X97400000Y-113151100D02*
X98300000Y-112251100D01*
X80750000Y-113812500D02*
X79937400Y-113812500D01*
D36*
X80706000Y-107757000D02*
X80391000Y-107442000D01*
X79121000Y-107442000D02*
X78806000Y-107757000D01*
%TO.N,/USB_UART_D+*%
X95238000Y-120669000D02*
X95238000Y-118630000D01*
X93980000Y-118364000D02*
X93538000Y-117922000D01*
X93538000Y-117922000D02*
X93538000Y-116961500D01*
X94238000Y-118622000D02*
X94238000Y-120669000D01*
X95238000Y-118630000D02*
X95504000Y-118364000D01*
X93980000Y-118364000D02*
X94238000Y-118622000D01*
%TO.N,/USB_UART_D-*%
X95438000Y-117312659D02*
X95438000Y-116961500D01*
X94738000Y-121670000D02*
X94738000Y-120669000D01*
X94738000Y-118012659D02*
X95438000Y-117312659D01*
X94738000Y-120669000D02*
X94738000Y-118012659D01*
X93738000Y-121647200D02*
X93786400Y-121695600D01*
X94712400Y-121695600D02*
X94738000Y-121670000D01*
X93738000Y-120669000D02*
X93738000Y-121647200D01*
X93786400Y-121695600D02*
X94712400Y-121695600D01*
%TO.N,/IO20*%
X77470000Y-110490000D02*
X76200000Y-109220000D01*
X82362000Y-114686500D02*
X82362000Y-113858000D01*
X77470000Y-112522000D02*
X77470000Y-110490000D01*
X81293000Y-100851000D02*
X81293000Y-98806000D01*
X77948000Y-113000000D02*
X77470000Y-112522000D01*
X81504000Y-113000000D02*
X77948000Y-113000000D01*
X82362000Y-113858000D02*
X81504000Y-113000000D01*
%TO.N,/IO19*%
X81293000Y-97536000D02*
X82804000Y-97536000D01*
X77873200Y-108353200D02*
X76200000Y-106680000D01*
X84262000Y-113726000D02*
X83058000Y-112522000D01*
X83058000Y-112522000D02*
X78232000Y-112522000D01*
X77873200Y-112163200D02*
X77873200Y-108353200D01*
X78232000Y-112522000D02*
X77873200Y-112163200D01*
X84262000Y-114686500D02*
X84262000Y-113726000D01*
%TO.N,Net-(Q1-Pad1)*%
X86199100Y-106157179D02*
X85473321Y-106157179D01*
X85473321Y-106157179D02*
X85283000Y-106347500D01*
X83820000Y-110807000D02*
X83820000Y-112014000D01*
%TO.N,/RTS*%
X86233000Y-103124000D02*
X91210659Y-103124000D01*
X84773000Y-103124000D02*
X83820000Y-104077000D01*
X92710000Y-104967000D02*
X92710000Y-104623341D01*
X86233000Y-103124000D02*
X84773000Y-103124000D01*
X92710000Y-104623341D02*
X91210659Y-103124000D01*
X86233000Y-104472500D02*
X86233000Y-103124000D01*
%TO.N,Net-(Q2-Pad1)*%
X85283000Y-109027000D02*
X85283000Y-110411500D01*
X85090000Y-104457000D02*
X83820000Y-105727000D01*
X85090000Y-104394000D02*
X85090000Y-104457000D01*
%TO.N,/IO0*%
X99270000Y-111550000D02*
X101600000Y-109220000D01*
X97746000Y-111550000D02*
X99270000Y-111550000D01*
X87183000Y-112075000D02*
X87630000Y-112522000D01*
X87630000Y-112522000D02*
X90678000Y-112522000D01*
X93637916Y-112522000D02*
X93935958Y-112223958D01*
X90678000Y-112522000D02*
X93637916Y-112522000D01*
X87183000Y-110411500D02*
X87183000Y-112075000D01*
X96266000Y-113030000D02*
X97746000Y-111550000D01*
X98793000Y-101841000D02*
X98806000Y-101854000D01*
X98793000Y-98806000D02*
X98793000Y-101841000D01*
X90678000Y-112522000D02*
X90678000Y-114251000D01*
%TO.N,/DTR*%
X86233000Y-108204000D02*
X84773000Y-108204000D01*
X88646000Y-108204000D02*
X88030937Y-108204000D01*
X87776937Y-108458000D02*
X86487000Y-108458000D01*
X93980000Y-106426000D02*
X92964000Y-107442000D01*
X88030937Y-108204000D02*
X87776937Y-108458000D01*
X84773000Y-108204000D02*
X83820000Y-109157000D01*
X86233000Y-108536500D02*
X86233000Y-108204000D01*
X93980000Y-104967000D02*
X93980000Y-106426000D01*
X86487000Y-108458000D02*
X86233000Y-108204000D01*
X89408000Y-107442000D02*
X88646000Y-108204000D01*
X92964000Y-107442000D02*
X89408000Y-107442000D01*
%TO.N,/IO4*%
X81293000Y-86106000D02*
X82804000Y-86106000D01*
%TO.N,/IO5*%
X81293000Y-87376000D02*
X82804000Y-87376000D01*
%TO.N,/IO6*%
X81293000Y-88646000D02*
X82804000Y-88646000D01*
%TO.N,/IO7*%
X81293000Y-89916000D02*
X82804000Y-89916000D01*
%TO.N,/IO17*%
X81293000Y-93726000D02*
X82804000Y-93726000D01*
%TO.N,/IO18*%
X81293000Y-94996000D02*
X82804000Y-94996000D01*
%TO.N,/IO8*%
X81293000Y-96266000D02*
X82804000Y-96266000D01*
%TO.N,/IO3*%
X83058000Y-100056000D02*
X83058000Y-101854000D01*
%TO.N,/IO46*%
X84328000Y-100056000D02*
X84328000Y-101854000D01*
%TO.N,/IO9*%
X85598000Y-100056000D02*
X85598000Y-101854000D01*
%TO.N,/IO10*%
X86868000Y-100056000D02*
X86868000Y-101854000D01*
%TO.N,/IO11*%
X88138000Y-100056000D02*
X88138000Y-101854000D01*
%TO.N,/IO12*%
X89408000Y-100056000D02*
X89408000Y-101854000D01*
%TO.N,/IO13*%
X90678000Y-100056000D02*
X90678000Y-101854000D01*
%TO.N,/IO14*%
X91948000Y-100056000D02*
X91948000Y-101854000D01*
%TO.N,/IO21*%
X93218000Y-100056000D02*
X93218000Y-101854000D01*
%TO.N,/IO47*%
X94488000Y-100056000D02*
X94488000Y-101854000D01*
%TO.N,/IO48*%
X95758000Y-100056000D02*
X95758000Y-101854000D01*
%TO.N,/IO45*%
X97028000Y-100056000D02*
X97028000Y-101854000D01*
%TO.N,/IO35*%
X98793000Y-97536000D02*
X97282000Y-97536000D01*
%TO.N,/IO36*%
X98793000Y-96266000D02*
X97282000Y-96266000D01*
%TO.N,/IO37*%
X98793000Y-94996000D02*
X97282000Y-94996000D01*
%TO.N,/IO38*%
X98793000Y-93726000D02*
X97282000Y-93726000D01*
%TO.N,/IO39*%
X98793000Y-92456000D02*
X99822000Y-92456000D01*
X100076000Y-94996000D02*
X101600000Y-96520000D01*
X100076000Y-92710000D02*
X100076000Y-94996000D01*
X99822000Y-92456000D02*
X100076000Y-92710000D01*
%TO.N,/IO40*%
X101600000Y-93472000D02*
X101600000Y-93980000D01*
X100203000Y-92075000D02*
X101600000Y-93472000D01*
X100203000Y-91567000D02*
X100203000Y-92075000D01*
X98793000Y-91186000D02*
X99822000Y-91186000D01*
X99822000Y-91186000D02*
X100203000Y-91567000D01*
%TO.N,/IO41*%
X98793000Y-89916000D02*
X100076000Y-89916000D01*
X100076000Y-89916000D02*
X101600000Y-91440000D01*
%TO.N,/IO42*%
X98793000Y-88646000D02*
X101346000Y-88646000D01*
X101346000Y-88646000D02*
X101600000Y-88900000D01*
%TO.N,/RXD0*%
X91440000Y-109917000D02*
X91440000Y-108297100D01*
X98793000Y-87376000D02*
X96012000Y-87376000D01*
X91440000Y-108297100D02*
X91346900Y-108204000D01*
X98793000Y-87376000D02*
X100584000Y-87376000D01*
X100584000Y-87376000D02*
X101600000Y-86360000D01*
%TO.N,/TXD0*%
X92710000Y-108364900D02*
X92549100Y-108204000D01*
X98793000Y-86106000D02*
X99314000Y-86106000D01*
X99314000Y-86106000D02*
X101600000Y-83820000D01*
X97282000Y-86106000D02*
X98793000Y-86106000D01*
X92710000Y-109917000D02*
X92710000Y-108364900D01*
%TO.N,/IO2*%
X98793000Y-84836000D02*
X97282000Y-84836000D01*
%TO.N,/IO1*%
X98793000Y-83566000D02*
X97282000Y-83566000D01*
%TO.N,/USB_D-*%
X83513600Y-121695600D02*
X83562000Y-121647200D01*
X82562000Y-120669000D02*
X82562000Y-121647200D01*
X84262000Y-117414000D02*
X84262000Y-116961500D01*
X83562000Y-118114000D02*
X84262000Y-117414000D01*
X82562000Y-121647200D02*
X82610400Y-121695600D01*
X83562000Y-120669000D02*
X83562000Y-118114000D01*
X83562000Y-121647200D02*
X83562000Y-120669000D01*
X82610400Y-121695600D02*
X83513600Y-121695600D01*
%TO.N,/USB_D+*%
X84062000Y-118630000D02*
X84328000Y-118364000D01*
X82362000Y-117920000D02*
X82362000Y-118176000D01*
X82362000Y-118176000D02*
X82677000Y-118491000D01*
X84062000Y-120669000D02*
X84062000Y-118630000D01*
X83062000Y-118876000D02*
X83062000Y-120669000D01*
X82362000Y-117920000D02*
X82362000Y-116961500D01*
X82677000Y-118491000D02*
X83062000Y-118876000D01*
%TO.N,/UART_D-*%
X95438000Y-112588000D02*
X96520000Y-111506000D01*
X95438000Y-114686500D02*
X95438000Y-112588000D01*
X96520000Y-111506000D02*
X96520000Y-109917000D01*
%TO.N,/UART_D+*%
X93538000Y-114686500D02*
X93538000Y-113472000D01*
X95250000Y-111760000D02*
X95250000Y-109917000D01*
X93538000Y-113472000D02*
X95250000Y-111760000D01*
D37*
%TO.N,Net-(D1-Pad1)*%
X97250000Y-116650000D02*
X97250000Y-115487500D01*
X97250000Y-115487500D02*
X97400000Y-115337500D01*
%TO.N,Net-(D2-Pad1)*%
X80550000Y-116700000D02*
X80550000Y-115587500D01*
X80550000Y-115587500D02*
X80750000Y-115387500D01*
%TO.N,/VBUS1*%
X97250000Y-118750000D02*
X96984000Y-119016000D01*
X96750000Y-119250000D02*
X97250000Y-118750000D01*
X96450000Y-119250000D02*
X96938000Y-119738000D01*
X96450000Y-119250000D02*
X96750000Y-119250000D01*
D36*
X92500000Y-116150000D02*
X92500000Y-118900000D01*
D37*
X96938000Y-119738000D02*
X96938000Y-120669000D01*
X96984000Y-119016000D02*
X96984000Y-120050000D01*
D36*
X94488000Y-116038000D02*
X94250000Y-115800000D01*
D37*
X92038000Y-120669000D02*
X92038000Y-119362000D01*
D36*
X94488000Y-116961500D02*
X94488000Y-116038000D01*
X94250000Y-115800000D02*
X92850000Y-115800000D01*
D37*
X92038000Y-119362000D02*
X92500000Y-118900000D01*
D36*
X92850000Y-115800000D02*
X92500000Y-116150000D01*
%TO.N,/VBUS2*%
X83312000Y-116062000D02*
X83050000Y-115800000D01*
D37*
X85762000Y-119162000D02*
X85450000Y-118850000D01*
X80600000Y-118750000D02*
X80550000Y-118800000D01*
X81600000Y-118750000D02*
X80600000Y-118750000D01*
D36*
X81600000Y-116050000D02*
X81600000Y-118750000D01*
D37*
X80862000Y-119112000D02*
X80550000Y-118800000D01*
X85762000Y-120669000D02*
X85762000Y-119162000D01*
D36*
X83050000Y-115800000D02*
X81850000Y-115800000D01*
X81850000Y-115800000D02*
X81600000Y-116050000D01*
X83312000Y-116961500D02*
X83312000Y-116062000D01*
D37*
X80862000Y-120669000D02*
X80862000Y-119112000D01*
D36*
%TO.N,/CC1_1*%
X99060000Y-113475000D02*
X100200000Y-114615000D01*
X100200000Y-123050000D02*
X99500000Y-123750000D01*
X93238000Y-122238000D02*
X93238000Y-120669000D01*
X100200000Y-114615000D02*
X100200000Y-123050000D01*
X99500000Y-123750000D02*
X94750000Y-123750000D01*
X94750000Y-123750000D02*
X93238000Y-122238000D01*
%TO.N,/CC2_1*%
X99796800Y-118909800D02*
X99796800Y-122603200D01*
X96238000Y-122588000D02*
X96238000Y-120669000D01*
X99060000Y-118173000D02*
X99796800Y-118909800D01*
X96850000Y-123200000D02*
X96238000Y-122588000D01*
X99796800Y-122603200D02*
X99200000Y-123200000D01*
X99200000Y-123200000D02*
X96850000Y-123200000D01*
%TO.N,/CC1_2*%
X81050000Y-123050000D02*
X82062000Y-122038000D01*
X82062000Y-122038000D02*
X82062000Y-120669000D01*
X78050000Y-119371000D02*
X78050000Y-122500000D01*
X78740000Y-118681000D02*
X78050000Y-119371000D01*
X78600000Y-123050000D02*
X81050000Y-123050000D01*
X78050000Y-122500000D02*
X78600000Y-123050000D01*
%TO.N,/CC2_2*%
X78388000Y-123600000D02*
X77600000Y-122812000D01*
X77600000Y-115123000D02*
X78740000Y-113983000D01*
X83200000Y-123600000D02*
X78388000Y-123600000D01*
X85062000Y-120669000D02*
X85062000Y-121738000D01*
X85062000Y-121738000D02*
X83200000Y-123600000D01*
X77600000Y-122812000D02*
X77600000Y-115123000D01*
%TD*%
%TA.AperFunction,Conductor*%
%TO.N,+3V3*%
G36*
X75254440Y-77230235D02*
G01*
X75254654Y-77229718D01*
X75259901Y-77231891D01*
X75262517Y-77232685D01*
X75271769Y-77238867D01*
X75281332Y-77240769D01*
X75281334Y-77240770D01*
X75304005Y-77245279D01*
X75330252Y-77250500D01*
X77069748Y-77250500D01*
X77095995Y-77245279D01*
X77118666Y-77240770D01*
X77118668Y-77240769D01*
X77128231Y-77238867D01*
X77137483Y-77232685D01*
X77140099Y-77231891D01*
X77145346Y-77229718D01*
X77145560Y-77230235D01*
X77192485Y-77216000D01*
X78641000Y-77216000D01*
X78699191Y-77234907D01*
X78735155Y-77284407D01*
X78740000Y-77315000D01*
X78740000Y-81026000D01*
X78994000Y-81280000D01*
X80165000Y-81280000D01*
X80223191Y-81298907D01*
X80259155Y-81348407D01*
X80264000Y-81379000D01*
X80264000Y-81534000D01*
X80272244Y-81534000D01*
X80278232Y-81538351D01*
X80314196Y-81587852D01*
X80317694Y-81602168D01*
X80346350Y-81774099D01*
X80345794Y-81809691D01*
X80342500Y-81826252D01*
X80342500Y-82765748D01*
X80354133Y-82824231D01*
X80398448Y-82890552D01*
X80464769Y-82934867D01*
X80474332Y-82936769D01*
X80474334Y-82936770D01*
X80497005Y-82941279D01*
X80523252Y-82946500D01*
X81943000Y-82946500D01*
X82001191Y-82965407D01*
X82037155Y-83014907D01*
X82042000Y-83045500D01*
X82042000Y-84086500D01*
X82023093Y-84144691D01*
X81973593Y-84180655D01*
X81943000Y-84185500D01*
X80523252Y-84185500D01*
X80497005Y-84190721D01*
X80474334Y-84195230D01*
X80474332Y-84195231D01*
X80464769Y-84197133D01*
X80398448Y-84241448D01*
X80393029Y-84249558D01*
X80370014Y-84284002D01*
X80321964Y-84321881D01*
X80287699Y-84328000D01*
X77275425Y-84328000D01*
X77217234Y-84309093D01*
X77181270Y-84259593D01*
X77181486Y-84197751D01*
X77227824Y-84058454D01*
X77227824Y-84058452D01*
X77229351Y-84053863D01*
X77255171Y-83849474D01*
X77255583Y-83820000D01*
X77235480Y-83614970D01*
X77175935Y-83417749D01*
X77079218Y-83235849D01*
X76949011Y-83076200D01*
X76874921Y-83014907D01*
X76794002Y-82947965D01*
X76794000Y-82947964D01*
X76790275Y-82944882D01*
X76609055Y-82846897D01*
X76535833Y-82824231D01*
X76416875Y-82787407D01*
X76416871Y-82787406D01*
X76412254Y-82785977D01*
X76407446Y-82785472D01*
X76407443Y-82785471D01*
X76212185Y-82764949D01*
X76212183Y-82764949D01*
X76207369Y-82764443D01*
X76147354Y-82769905D01*
X76007022Y-82782675D01*
X76007017Y-82782676D01*
X76002203Y-82783114D01*
X75804572Y-82841280D01*
X75800288Y-82843519D01*
X75800287Y-82843520D01*
X75789428Y-82849197D01*
X75622002Y-82936726D01*
X75618231Y-82939758D01*
X75465220Y-83062781D01*
X75465217Y-83062783D01*
X75461447Y-83065815D01*
X75458333Y-83069526D01*
X75458332Y-83069527D01*
X75449585Y-83079952D01*
X75329024Y-83223630D01*
X75326689Y-83227878D01*
X75326688Y-83227879D01*
X75319955Y-83240126D01*
X75229776Y-83404162D01*
X75167484Y-83600532D01*
X75166944Y-83605344D01*
X75166944Y-83605345D01*
X75165865Y-83614970D01*
X75144520Y-83805262D01*
X75161759Y-84010553D01*
X75163092Y-84015201D01*
X75163092Y-84015202D01*
X75216573Y-84201712D01*
X75214438Y-84262860D01*
X75176768Y-84311075D01*
X75121408Y-84328000D01*
X74721500Y-84328000D01*
X74663309Y-84309093D01*
X74627345Y-84259593D01*
X74622500Y-84229000D01*
X74622500Y-81265262D01*
X75144520Y-81265262D01*
X75161759Y-81470553D01*
X75218544Y-81668586D01*
X75312712Y-81851818D01*
X75440677Y-82013270D01*
X75444357Y-82016402D01*
X75444359Y-82016404D01*
X75505302Y-82068270D01*
X75597564Y-82146791D01*
X75601787Y-82149151D01*
X75601791Y-82149154D01*
X75641342Y-82171258D01*
X75777398Y-82247297D01*
X75781996Y-82248791D01*
X75968724Y-82309463D01*
X75968726Y-82309464D01*
X75973329Y-82310959D01*
X76177894Y-82335351D01*
X76182716Y-82334980D01*
X76182719Y-82334980D01*
X76250541Y-82329761D01*
X76383300Y-82319546D01*
X76581725Y-82264145D01*
X76586038Y-82261966D01*
X76586044Y-82261964D01*
X76761289Y-82173441D01*
X76761291Y-82173440D01*
X76765610Y-82171258D01*
X76800943Y-82143653D01*
X76924135Y-82047406D01*
X76924139Y-82047402D01*
X76927951Y-82044424D01*
X77062564Y-81888472D01*
X77064957Y-81884260D01*
X77161934Y-81713550D01*
X77161935Y-81713547D01*
X77164323Y-81709344D01*
X77177882Y-81668586D01*
X77227824Y-81518454D01*
X77227824Y-81518452D01*
X77229351Y-81513863D01*
X77255171Y-81309474D01*
X77255583Y-81280000D01*
X77235480Y-81074970D01*
X77175935Y-80877749D01*
X77079218Y-80695849D01*
X76949011Y-80536200D01*
X76790275Y-80404882D01*
X76609055Y-80306897D01*
X76545855Y-80287333D01*
X76416875Y-80247407D01*
X76416871Y-80247406D01*
X76412254Y-80245977D01*
X76407446Y-80245472D01*
X76407443Y-80245471D01*
X76212185Y-80224949D01*
X76212183Y-80224949D01*
X76207369Y-80224443D01*
X76147354Y-80229905D01*
X76007022Y-80242675D01*
X76007017Y-80242676D01*
X76002203Y-80243114D01*
X75804572Y-80301280D01*
X75800288Y-80303519D01*
X75800287Y-80303520D01*
X75789428Y-80309197D01*
X75622002Y-80396726D01*
X75618231Y-80399758D01*
X75465220Y-80522781D01*
X75465217Y-80522783D01*
X75461447Y-80525815D01*
X75458333Y-80529526D01*
X75458332Y-80529527D01*
X75449585Y-80539952D01*
X75329024Y-80683630D01*
X75326689Y-80687878D01*
X75326688Y-80687879D01*
X75319955Y-80700126D01*
X75229776Y-80864162D01*
X75167484Y-81060532D01*
X75166944Y-81065344D01*
X75166944Y-81065345D01*
X75156832Y-81155500D01*
X75144520Y-81265262D01*
X74622500Y-81265262D01*
X74622500Y-79008222D01*
X75184549Y-79008222D01*
X75217674Y-79123743D01*
X75221225Y-79132711D01*
X75310919Y-79307236D01*
X75316142Y-79315341D01*
X75438037Y-79469134D01*
X75444720Y-79476055D01*
X75594164Y-79603241D01*
X75602078Y-79608742D01*
X75773373Y-79704475D01*
X75782201Y-79708332D01*
X75931088Y-79756708D01*
X75942479Y-79756708D01*
X75946000Y-79745871D01*
X75946000Y-79743608D01*
X76454000Y-79743608D01*
X76457747Y-79755141D01*
X76468079Y-79755357D01*
X76576882Y-79724978D01*
X76585862Y-79721496D01*
X76761020Y-79633017D01*
X76769155Y-79627854D01*
X76923787Y-79507042D01*
X76930771Y-79500391D01*
X77058990Y-79351848D01*
X77064546Y-79343973D01*
X77161471Y-79173353D01*
X77165392Y-79164546D01*
X77217176Y-79008879D01*
X77217255Y-78997612D01*
X77206268Y-78994000D01*
X76469680Y-78994000D01*
X76456995Y-78998122D01*
X76454000Y-79002243D01*
X76454000Y-79743608D01*
X75946000Y-79743608D01*
X75946000Y-79009680D01*
X75941878Y-78996995D01*
X75937757Y-78994000D01*
X75196151Y-78994000D01*
X75184733Y-78997710D01*
X75184549Y-79008222D01*
X74622500Y-79008222D01*
X74622500Y-78471053D01*
X75183703Y-78471053D01*
X75183784Y-78482570D01*
X75194466Y-78486000D01*
X75930320Y-78486000D01*
X75943005Y-78481878D01*
X75946000Y-78477757D01*
X75946000Y-78470320D01*
X76454000Y-78470320D01*
X76458122Y-78483005D01*
X76462243Y-78486000D01*
X77204493Y-78486000D01*
X77215681Y-78482365D01*
X77215794Y-78471497D01*
X77176869Y-78342572D01*
X77173199Y-78333668D01*
X77081072Y-78160401D01*
X77075740Y-78152376D01*
X76951716Y-78000307D01*
X76944922Y-77993466D01*
X76793721Y-77868381D01*
X76785738Y-77862997D01*
X76613114Y-77769660D01*
X76604243Y-77765931D01*
X76468977Y-77724059D01*
X76457340Y-77724222D01*
X76454000Y-77734750D01*
X76454000Y-78470320D01*
X75946000Y-78470320D01*
X75946000Y-77735857D01*
X75942327Y-77724553D01*
X75931638Y-77724404D01*
X75809407Y-77760378D01*
X75800466Y-77763991D01*
X75626573Y-77854899D01*
X75618497Y-77860184D01*
X75465571Y-77983140D01*
X75458687Y-77989881D01*
X75332551Y-78140205D01*
X75327104Y-78148159D01*
X75232573Y-78320111D01*
X75228773Y-78328976D01*
X75183703Y-78471053D01*
X74622500Y-78471053D01*
X74622500Y-77315000D01*
X74641407Y-77256809D01*
X74690907Y-77220845D01*
X74721500Y-77216000D01*
X75207515Y-77216000D01*
X75254440Y-77230235D01*
G37*
%TD.AperFunction*%
%TD*%
M02*
